<svg width="303" height="103" viewBox="0 0 303 103" fill="none" xmlns="http://www.w3.org/2000/svg">
<path d="M280.985 95.2334C263.161 108.588 204.408 101.318 156.353 93.5667C129.361 89.213 29.7208 110.065 19.6837 95.2334C1.86962 68.9103 -9.41545 26.6305 19.6837 13.8445C53.0518 -0.817204 127.299 -7.30863 280.985 13.8445C312.473 18.1784 306.422 76.1749 280.985 95.2334Z" fill="#FFEEC0"/>
<path d="M94 67.2L102.8 33.9L115.25 33.3C115.083 32.5333 115.45 33.9833 116.35 37.65C117.217 41.2833 119.433 50.8833 123 66.45L115.3 67.75L113.15 57L104.95 57.45L102.55 66.95L94 67.2ZM111.75 50.5L109.95 39.05C108.95 39.15 108.333 39.2167 108.1 39.25C107.867 39.2833 107.767 39.3 107.8 39.3L106.1 50.75L111.75 50.5ZM142.906 61.6C141.506 63.4667 140.073 64.8833 138.606 65.85C137.14 66.85 135.223 67.3833 132.856 67.45C125.856 66.2833 122.556 61.7333 122.956 53.8C123.356 45.9 123.94 40.15 124.706 36.55L132.056 37.55C131.323 42.35 130.856 47.05 130.656 51.65C130.456 56.2167 132.406 58.6667 136.506 59C139.673 58.4 141.073 55.6333 140.706 50.7C140.34 45.7333 140.023 42.1833 139.756 40.05L147.606 39.85L150.706 67.3C150.273 67.3667 149.273 67.4833 147.706 67.65C146.14 67.85 145.19 67.9333 144.856 67.9L142.906 61.6ZM152.748 67.15L150.348 33.65C156.081 32.25 161.281 32.7333 165.948 35.1C170.614 37.5 173.198 42.6 173.698 50.4C173.864 55.9333 172.214 60.3333 168.748 63.6C165.281 66.8667 159.948 68.05 152.748 67.15ZM158.548 41.3L160.648 59C163.648 58.4333 165.031 55.3333 164.798 49.7C164.531 44.0333 162.448 41.2 158.548 41.2V41.3ZM177.538 68.3L175.738 41.35L184.038 41.2L186.388 68L177.538 68.3ZM175.838 38.3L175.738 33.3L183.488 33.15L183.588 38.35L175.838 38.3ZM201.591 68.6L192.741 68.85L193.041 41.55L186.041 41.4L186.441 33.5L208.341 34.5L207.741 42.5L201.441 42.15L201.591 68.6Z" fill="#EB5C3D"/>
</svg>
