<svg width="1397" height="379" viewBox="0 0 1397 379" fill="none" xmlns="http://www.w3.org/2000/svg">
<path d="M52.5561 268.048C52.3625 270.952 51.7817 260.498 50.8138 236.687C49.6522 213.069 46.942 158.284 42.6831 72.331C56.0406 61.103 78.8839 56.4569 111.213 58.3927C143.542 60.3286 161.642 75.5252 165.514 103.983C165.514 116.953 162.417 126.923 156.222 133.892C150.221 140.861 141.316 146.088 129.507 149.572C144.8 152.476 157.964 158.477 168.999 167.576C180.227 176.675 186.131 189.355 186.712 205.616C181.679 238.139 160.481 256.916 123.119 261.95C85.7563 266.983 62.2354 269.016 52.5561 268.048ZM92.6286 180.643L94.9517 230.008C113.342 228.266 125.635 224.297 131.83 218.102C137.831 211.907 140.638 203.874 140.251 194.001C139.09 182.385 132.992 176.094 121.957 175.126C110.729 173.964 100.953 175.803 92.6286 180.643ZM83.0461 99.6268L85.9499 131.278C92.7254 131.278 100.275 129.439 108.6 125.761C116.924 121.889 121.086 115.598 121.086 106.886C118.763 96.6262 112.181 92.4641 101.34 94.4C90.4992 96.3358 84.4012 98.0781 83.0461 99.6268Z" fill="black"/>
<path d="M189.291 258.465L240.398 65.0715L312.703 61.5869C311.735 57.1344 313.865 65.5555 319.092 86.8501C324.125 107.951 336.999 163.704 357.712 254.109L312.994 261.659L300.507 199.227L252.885 201.841L238.947 257.013L189.291 258.465ZM292.377 161.478L281.923 94.9807C276.115 95.5615 272.534 95.9487 271.179 96.1422C269.824 96.3358 269.243 96.4326 269.437 96.4326L259.564 162.93L292.377 161.478Z" fill="black"/>
<path d="M367.324 268.048C367.131 270.952 366.55 260.498 365.582 236.687C364.421 213.069 361.71 158.284 357.451 72.331C370.809 61.103 393.652 56.4569 425.981 58.3927C458.31 60.3286 476.411 75.5252 480.283 103.983C480.283 116.953 477.185 126.923 470.99 133.892C464.989 140.861 456.084 146.088 444.275 149.572C459.569 152.476 472.733 158.477 483.767 167.576C494.995 176.675 500.9 189.355 501.48 205.616C496.447 238.139 475.249 256.916 437.887 261.95C400.525 266.983 377.004 269.016 367.324 268.048ZM407.397 180.643L409.72 230.008C428.111 228.266 440.404 224.297 446.598 218.102C452.6 211.907 455.407 203.874 455.019 194.001C453.858 182.385 447.76 176.094 436.725 175.126C425.497 173.964 415.721 175.803 407.397 180.643ZM397.814 99.6268L400.718 131.278C407.494 131.278 415.044 129.439 423.368 125.761C431.692 121.889 435.854 115.598 435.854 106.886C433.531 96.6262 426.949 92.4641 416.108 94.4C405.268 96.3358 399.17 98.0781 397.814 99.6268Z" fill="black"/>
<path d="M537.1 260.788L549.586 208.229C546.876 201.067 541.165 189.258 532.454 172.803C523.742 156.348 507.094 125.374 482.508 79.8809L536.229 73.7829C542.036 84.2366 548.618 97.5942 555.974 113.855C563.331 130.31 569.816 143.765 575.43 154.218H575.72L600.984 72.0406L650.058 84.8174C644.444 98.3685 633.216 129.536 616.374 178.32C599.532 226.91 588.788 258.368 584.141 272.694L537.1 260.788Z" fill="black"/>
<path d="M662.642 262.24L659.448 217.231C665.449 218.199 676.87 219.167 693.713 220.135C710.361 220.909 720.718 215.779 724.783 204.745C725.751 180.74 713.942 167.479 689.357 164.963C664.771 162.446 651.027 146.281 648.123 116.469C650.446 91.6897 661.867 76.6867 682.388 71.4599C702.908 66.233 723.815 65.2651 745.11 68.5561V108.338C736.205 106.983 726.429 105.531 715.781 103.983C704.941 102.627 698.939 106.112 697.778 114.436C697.778 117.921 699.423 121.018 702.714 123.728C705.812 126.245 709.974 128.665 715.201 130.988C729.72 137.376 742.981 146.281 754.983 157.703C766.792 169.125 773.083 183.353 773.858 200.389C772.696 222.652 761.275 239.978 739.593 252.367C717.717 264.757 692.067 268.048 662.642 262.24Z" fill="black"/>
<path d="M833.86 263.402L785.366 263.111L790.593 61.5869C819.825 53.6499 845.766 52.9723 868.415 59.5543C891.259 65.9426 903.261 89.0763 904.422 128.955C903.067 159.736 894.356 179.094 878.288 187.031C862.414 194.969 847.508 198.066 833.57 196.324L833.86 263.402ZM831.247 96.1422L830.666 158.865C850.605 162.736 861.253 152.96 862.608 129.536C863.963 106.112 853.509 94.9807 831.247 96.1422Z" fill="black"/>
<path d="M891.707 258.465L942.814 65.0715L1015.12 61.5869C1014.15 57.1344 1016.28 65.5555 1021.51 86.8501C1026.54 107.951 1039.41 163.704 1060.13 254.109L1015.41 261.659L1002.92 199.227L955.3 201.841L941.362 257.013L891.707 258.465ZM994.792 161.478L984.339 94.9807C978.531 95.5615 974.95 95.9487 973.594 96.1422C972.239 96.3358 971.659 96.4326 971.852 96.4326L961.979 162.93L994.792 161.478Z" fill="black"/>
<path d="M1068.73 274.727L1053.34 68.8464C1062.06 63.2324 1086.16 60.8126 1125.65 61.5869C1164.95 62.5549 1187.31 83.2687 1192.73 123.728C1192.53 136.892 1188.76 148.508 1181.4 158.574C1174.24 168.641 1164.95 175.029 1153.53 177.739L1189.82 265.434L1143.65 271.242L1106.19 190.516L1110.26 270.952L1068.73 274.727ZM1099.52 99.0461L1103.58 143.184C1111.9 144.733 1122.07 144.442 1134.07 142.313C1145.88 140.377 1152.66 133.989 1154.4 123.148C1152.66 110.952 1145.49 103.402 1132.91 100.498C1120.52 97.5942 1109.39 97.1102 1099.52 99.0461Z" fill="black"/>
<path d="M1262.57 271.242L1204.21 267.467L1206.82 72.9118L1265.77 68.5561L1262.86 139.119H1263.15L1306.71 71.4599C1306.9 71.4599 1307 71.4599 1307 71.4599C1307.2 71.6535 1307.29 71.7503 1307.29 71.7503L1361.01 80.4617L1304.68 169.899L1370.89 252.658L1309.91 259.046L1261.99 196.614L1262.57 271.242Z" fill="black"/>
<path d="M17.2625 315.469L44.9139 287.27C54.3319 287.27 57.0514 295.119 57.2339 299.043L33.1415 330.253C23.7236 330.472 18.6313 320.489 17.2625 315.469Z" fill="black"/>
<path d="M35.3317 285.08C32.4845 286.613 27.9398 289.917 26.0233 291.377C22.0809 290.282 20.9128 286.723 20.8216 285.08L33.1415 280.152C35.058 281.156 38.179 283.547 35.3317 285.08Z" fill="black"/>
<path d="M0.262451 14.9396L27.9139 43.1386C37.3319 43.1386 40.0514 35.2903 40.2339 31.3662L16.1415 0.155617C6.7236 -0.0634041 1.63134 9.92034 0.262451 14.9396Z" fill="black"/>
<path d="M18.3317 45.3288C15.4845 43.7957 10.9398 40.4921 9.02333 39.032C5.08094 40.1271 3.91282 43.6862 3.82156 45.3288L16.1415 50.2568C18.058 49.253 21.179 46.862 18.3317 45.3288Z" fill="black"/>
<path d="M1397 315.469L1369.35 287.27C1359.93 287.27 1357.21 295.119 1357.03 299.043L1381.12 330.253C1390.54 330.472 1395.63 320.489 1397 315.469Z" fill="black"/>
<path d="M1378.93 285.08C1381.78 286.613 1386.32 289.917 1388.24 291.377C1392.18 290.282 1393.35 286.723 1393.44 285.08L1381.12 280.152C1379.2 281.156 1376.08 283.547 1378.93 285.08Z" fill="black"/>
<path d="M1382.23 71.3201C1384.53 69.0475 1389.02 65.6713 1390.98 64.2673C1391.09 60.1771 1388.03 58.0167 1386.48 57.4477L1378.16 67.7811C1378.56 69.9077 1379.93 73.5926 1382.23 71.3201Z" fill="black"/>
<path d="M1169.31 366.35L1169.02 331.105C1174.75 326.738 1181.16 331.717 1183.65 334.753L1187.93 370.742C1182.33 375.284 1173.18 369.706 1169.31 366.35Z" fill="black"/>
</svg>
