<?xml version="1.0" encoding="UTF-8"?>
<svg version="1.1" xmlns="http://www.w3.org/2000/svg" width="5821" height="1579">
<path d="M0 0 C2.03121426 1.76278949 3.50414568 3.61033675 5.16796875 5.71875 C6.26878287 6.96751591 7.37573356 8.21089502 8.48828125 9.44921875 C12.01505601 13.46405946 15.14924244 17.66976829 18.23046875 22.03125 C19.36632322 23.62171134 20.50307216 25.2115342 21.640625 26.80078125 C22.22086426 27.61240723 22.80110352 28.4240332 23.39892578 29.26025391 C26.2862154 33.27281346 29.22738256 37.24517292 32.16796875 41.21875 C36.70593433 47.35857168 41.20763895 53.52230277 45.66796875 59.71875 C52.42780624 69.10655773 59.29214219 78.41571495 66.16796875 87.71875 C73.5891837 97.75969886 80.97968681 107.81941404 88.27587891 117.95166016 C94.50459278 126.59124604 100.83750889 135.1535994 107.16796875 143.71875 C114.5891837 153.75969886 121.97968681 163.81941404 129.27587891 173.95166016 C135.50459278 182.59124604 141.83750889 191.1535994 148.16796875 199.71875 C155.5891837 209.75969886 162.97968681 219.81941404 170.27587891 229.95166016 C175.92514958 237.78752486 181.66109767 245.55867854 187.40185547 253.32763672 C189.74376158 256.49830696 192.08191583 259.67173249 194.41967773 262.84545898 C195.58682481 264.42985177 196.75430625 266.01399829 197.92211914 267.59790039 C200.81925231 271.52756327 203.71251284 275.45996164 206.59765625 279.3984375 C213.36910472 288.63223087 220.24028882 297.78073588 227.19995117 306.87353516 C231.64739152 312.6940938 236.02556871 318.56032256 240.35546875 324.46875 C246.30713405 332.58717378 252.38445498 340.60062849 258.52392578 348.57763672 C260.2534066 350.83001967 261.97523936 353.088082 263.6953125 355.34765625 C264.27659912 356.11062012 264.85788574 356.87358398 265.45678711 357.65966797 C266.56135518 359.10983709 267.66509435 360.56063813 268.76782227 362.01220703 C277.66920694 374.02052102 277.66920694 374.02052102 290.73046875 380.59375 C291.53484375 380.635 292.33921875 380.67625 293.16796875 380.71875 C295.06776251 376.58973863 295.7793471 372.56008518 296.27734375 368.08203125 C296.36143494 367.33705887 296.44552612 366.59208649 296.53216553 365.82453918 C299.16812352 340.44707689 297.2334481 314.23524359 296.375 288.80078125 C296.33286943 287.53593903 296.29073887 286.2710968 296.24733162 284.96792603 C295.17184518 253.05908392 293.57522376 221.17606888 291.96278226 189.29065782 C291.32385264 176.65564516 290.6925154 164.02025232 290.06394726 151.38472033 C289.84558961 146.99911883 289.6249536 142.61364042 289.4023329 138.22825336 C288.07717714 112.08507141 287.08639202 85.93875915 286.55541992 59.76708984 C286.50484517 57.37277875 286.44939334 54.97856638 286.3894043 52.58447266 C286.30079069 49.03562926 286.22694255 45.48674035 286.15625 41.9375 C286.11266106 40.35757263 286.11266106 40.35757263 286.06819153 38.74572754 C285.76939921 20.93788281 285.76939921 20.93788281 290.54296875 14.53125 C295.23410469 11.29213233 299.87547765 11.55809071 305.4296875 11.5078125 C307.22746349 11.48143095 309.02523337 11.45463154 310.82299805 11.42749023 C311.79747894 11.41418671 312.77195984 11.40088318 313.77597046 11.38717651 C331.04188106 11.14369585 348.28982421 10.67757012 365.54296875 9.98828125 C366.38546299 9.95465233 367.22795723 9.92102341 368.0959816 9.88637543 C371.55277248 9.74815491 375.00954741 9.60954047 378.4663105 9.47062683 C429.9893413 7.40487453 429.9893413 7.40487453 455.48257446 7.24295044 C457.7954525 7.22694862 460.10828979 7.20273388 462.42098999 7.16989136 C465.55204102 7.12907025 468.68122815 7.12121917 471.8125 7.125 C472.71569977 7.10873062 473.61889954 7.09246124 474.54946899 7.07569885 C480.54955119 7.14265373 480.54955119 7.14265373 483.69018555 10.06835938 C486.4075015 14.94184061 486.34421031 19.29753012 486.37109375 24.73828125 C486.38154724 26.1739595 486.38154724 26.1739595 486.39221191 27.63864136 C486.4102136 30.93622013 486.41599796 34.23362323 486.41796875 37.53125 C486.41897583 38.71038971 486.41998291 39.88952942 486.42102051 41.10440063 C486.38536953 104.96317302 483.08145743 168.86800398 480.65360451 232.66812706 C480.48622345 237.06759493 480.31988402 241.46710201 480.1534996 245.86660767 C480.0417507 248.806955 479.92819416 251.74722801 479.81448364 254.6875 C479.58472818 260.6974417 479.37416724 266.70795793 479.16796875 272.71875 C479.12635089 273.92436525 479.08473303 275.12998051 479.04185402 276.37212956 C478.28181963 298.9381736 478.01499304 321.48049128 478.01133728 344.05839849 C478.00945379 348.71917887 478.00182539 353.37995064 477.99485779 358.04072571 C477.98347055 366.07227719 477.97515646 374.10382671 477.96873856 382.13538361 C477.95829762 394.83438961 477.9377143 407.53337054 477.9156189 420.23236084 C477.9081449 424.59633247 477.90073061 428.96030421 477.89333153 433.32427597 C477.89148096 434.41388109 477.8896304 435.50348622 477.88772375 436.62610967 C477.86690949 448.95402516 477.84801901 461.2819433 477.83007812 473.60986328 C477.82843994 474.73364001 477.82680176 475.85741674 477.82511394 477.01524732 C477.79870804 495.31179201 477.78011949 513.6083387 477.76348622 531.9048945 C477.74607738 550.75127689 477.71726417 569.59761968 477.67859685 588.44397044 C477.65522438 600.04141413 477.6412048 611.63879337 477.63926922 623.2362608 C477.63716294 631.16094913 477.62425989 639.08557294 477.60278989 647.0102323 C477.5907506 651.58038179 477.58361694 656.15040317 477.58950233 660.7205677 C477.59479224 664.90282862 477.58634044 669.08482791 477.56694596 673.26704511 C477.56236701 674.77956565 477.56284557 676.29211172 477.56889434 677.80462709 C477.62060036 691.99968952 477.62060036 691.99968952 474.16796875 697.71875 C467.38452783 703.53312793 455.35868059 702.04626576 446.91796875 702.28125 C446.19631531 702.30176422 445.47466187 702.32227844 444.73114014 702.34341431 C429.72887916 702.75196824 414.72267452 702.85537232 399.7154541 702.89498901 C397.14537414 702.90236741 394.57530089 702.9129311 392.00524902 702.92703247 C375.85073357 703.0073683 359.86999247 702.46648108 343.76416016 701.19238281 C336.14208097 700.60385929 328.5188635 700.37389957 320.87716675 700.22001648 C311.77224541 700.0103781 304.8252977 698.24331171 298.16796875 691.71875 C296.46208594 689.74409465 294.86362216 687.79282189 293.29296875 685.71875 C292.83446533 685.12408936 292.37596191 684.52942871 291.90356445 683.91674805 C290.31822425 681.85588374 288.74344452 679.78716323 287.16796875 677.71875 C285.9092575 676.07911737 284.65012256 674.43980994 283.390625 672.80078125 C276.31349033 663.57018798 269.33658303 654.27298011 262.4621582 644.890625 C257.38646872 637.9783137 252.19673748 631.15633154 246.98828125 624.34375 C242.53898595 618.52345092 238.12604075 612.67803117 233.74121094 606.80908203 C229.62860053 601.31318918 225.46215486 595.85929174 221.29296875 590.40625 C216.13972778 583.66424588 211.05368396 576.87979315 206.04296875 570.03125 C200.95781897 563.08250431 195.73222706 556.26181231 190.41748047 549.48754883 C186.23325424 544.13610683 182.17614823 538.70300897 178.16796875 533.21875 C172.99109729 526.13693465 167.68093413 519.17730813 162.27294922 512.27075195 C158.05996113 506.88460872 153.9303277 501.4431526 149.84277344 495.96142578 C145.70038779 490.41149938 141.50010453 484.90719528 137.29296875 479.40625 C132.13961443 472.66433202 127.05373877 465.87975053 122.04296875 459.03125 C116.84165987 451.92489233 111.50282214 444.94070145 106.07470703 438.00634766 C102.08450606 432.90807161 98.173203 427.76170298 94.3046875 422.5703125 C90.72262302 417.78986081 87.06664882 413.06639183 83.41650391 408.33789062 C81.41254619 405.73909369 79.41617147 403.13447318 77.41796875 400.53125 C72.7512665 394.45827242 68.04637001 388.41521105 63.34082031 382.37231445 C59.93616971 377.99814289 56.54331015 373.6155763 53.16796875 369.21875 C47.39106039 361.6973297 41.57581805 354.20600802 35.73779297 346.73193359 C34.37768111 344.98769061 33.0238046 343.23886398 31.671875 341.48828125 C30.64900391 340.17923828 30.64900391 340.17923828 29.60546875 338.84375 C28.76822266 337.76480469 28.76822266 337.76480469 27.9140625 336.6640625 C25.86525681 334.38150046 23.60335067 332.57546852 21.16796875 330.71875 C17.79312724 334.09359151 18.05167895 337.47804422 18.0339489 342.13319969 C18.03652262 342.84584291 18.03909634 343.55848614 18.04174805 344.29272461 C18.04088762 345.05240854 18.0400272 345.81209248 18.0391407 346.59479713 C18.03850276 349.12443807 18.04610283 351.65396825 18.0546875 354.18359375 C18.0562705 355.06694838 18.05785351 355.950303 18.05948448 356.86042595 C18.09793942 377.32366402 18.47629632 397.7784866 18.91557693 418.23643494 C18.981839 421.34554428 19.04633647 424.45468576 19.11032104 427.56384277 C19.89172556 465.48873016 20.85177849 503.40871486 21.83005524 541.32894897 C23.39198411 601.89522468 23.39198411 601.89522468 23.85546875 631.78125 C23.87425079 632.95804321 23.89303284 634.13483643 23.91238403 635.34729004 C24.01100514 641.69444633 24.08531711 648.04125568 24.13519287 654.38897705 C24.16544221 657.4620728 24.21111162 660.53465435 24.26084042 663.60748768 C24.30155543 666.33237499 24.32868859 669.0573002 24.35312843 671.78237724 C24.37432641 673.71590375 24.41075255 675.64924468 24.44767761 677.58253479 C24.50085541 685.49284152 24.46732265 693.15188092 18.85546875 699.21875 C13.86868196 702.00207286 8.57570858 701.84496278 2.9704895 701.85246277 C2.26863647 701.85472833 1.56678344 701.85699388 0.84366214 701.85932809 C-1.49600654 701.86563209 -3.83561676 701.86484105 -6.17529297 701.86401367 C-7.85775833 701.86700739 -9.540223 701.87041041 -11.22268677 701.87419128 C-15.78471028 701.88301335 -20.34671503 701.88536863 -24.90874624 701.88600707 C-27.76086337 701.88671854 -30.61297576 701.88885468 -33.46509171 701.89150429 C-43.42057853 701.90075143 -53.37605199 701.90483992 -63.33154297 701.90405273 C-72.60303698 701.90345195 -81.87447281 701.91400547 -91.14595211 701.9297964 C-99.11386319 701.94288226 -107.08175527 701.9482362 -115.04967701 701.94759732 C-119.80510004 701.94734267 -124.56047134 701.95017622 -129.31588364 701.96077538 C-133.78924883 701.97047406 -138.262513 701.9705234 -142.73588181 701.96325874 C-144.37411141 701.96221514 -146.01234736 701.96456245 -147.6505661 701.9706192 C-149.89402329 701.97837397 -152.1371346 701.9736716 -154.38058472 701.96598816 C-156.26041455 701.96680531 -156.26041455 701.96680531 -158.17822075 701.96763897 C-163.73528186 701.58910505 -168.37425759 700.92839197 -172.76953125 697.28125 C-176.15584813 693.07400781 -176.00469034 689.26325005 -176.03515625 684.09765625 C-176.04217056 683.29148865 -176.04918488 682.48532104 -176.05641174 681.65472412 C-176.07457296 678.86351199 -176.08032667 676.07252024 -176.08203125 673.28125 C-176.08270599 672.27274994 -176.08338074 671.26424988 -176.08407593 670.22518921 C-176.02070242 608.29032409 -172.2817322 546.284346 -169.54614258 484.42895508 C-169.00083799 472.09497229 -168.46539079 459.7606062 -167.94619751 447.42549515 C-167.84413414 445.00569509 -167.74064762 442.5859602 -167.63696289 440.16622925 C-166.56672618 414.59075436 -166.58792653 388.99989799 -166.58203125 363.40625 C-166.58144211 362.22757732 -166.58085297 361.04890465 -166.58024597 359.83451462 C-166.56480019 315.77555936 -167.58384944 271.82661005 -169.35253906 227.80712891 C-170.14206353 208.14829468 -170.8416676 188.48598564 -171.55878448 168.82440662 C-171.85824187 160.62759954 -172.16437306 152.43106161 -172.47363281 144.23461914 C-175.00070733 77.05420634 -175.00070733 77.05420634 -175.12719727 45.19165039 C-175.13909103 43.10890109 -175.16007505 41.02618977 -175.1887207 38.94360352 C-175.23100103 35.82548826 -175.24745965 32.70820791 -175.2578125 29.58984375 C-175.27532059 28.66304306 -175.29282867 27.73624237 -175.31086731 26.78135681 C-175.29649979 22.56776765 -175.21158259 20.32778384 -172.93823242 16.67993164 C-165.61531743 9.8612257 -152.59608329 11.57721378 -143.26889038 11.38937378 C-107.94343987 10.60771002 -73.50491447 6.74213648 -38.6452179 0.9750824 C-8.74135477 -3.95470947 -8.74135477 -3.95470947 0 0 Z " fill="#000000" transform="translate(4437.83203125,309.28125)"/>
<path d="M0 0 C3.02293735 -0.00071936 6.04587039 -0.00287044 9.06880665 -0.00549722 C19.71626789 -0.014725 30.36371673 -0.01883696 41.01118183 -0.01804566 C49.6934925 -0.0175167 58.37575774 -0.02448287 67.05805683 -0.03855348 C258.91730524 -0.34253809 258.91730524 -0.34253809 338.38129902 26.16725707 C339.30104511 26.46680297 340.22079121 26.76634887 341.16840839 27.07497191 C371.50195451 37.03056915 399.43044968 52.29665765 424.38129902 72.16725707 C425.23570576 72.84594848 425.23570576 72.84594848 426.10737324 73.53835082 C441.20166165 85.67357833 455.75036586 99.65934619 467.38129902 115.16725707 C468.30337839 116.35040505 469.22664798 117.53262599 470.15083027 118.71413207 C481.66210054 133.57872608 491.56239189 149.57393328 500.38129902 166.16725707 C501.01285908 167.35448363 501.01285908 167.35448363 501.65717793 168.56569457 C525.21339244 213.28724094 540.33871771 262.71971544 544.38129902 313.16725707 C544.54758808 314.96163207 544.54758808 314.96163207 544.71723652 316.79225707 C549.98655675 382.87238109 537.71357162 450.33274858 509.38129902 510.16725707 C508.99071308 510.99370727 508.60012714 511.82015746 508.19770527 512.6716516 C495.94128077 538.38502743 480.45892914 562.16404662 462.38129902 584.16725707 C461.9318996 584.71430297 461.48250019 585.26134887 461.01948261 585.82497191 C447.50408866 602.18823533 433.17620642 618.11239207 416.38129902 631.16725707 C415.39903339 631.95487426 414.41676777 632.74249145 413.40473652 633.55397582 C368.16283396 669.53845937 312.12128405 687.94373911 255.25629902 694.47975707 C254.55556263 694.56115935 253.85482624 694.64256164 253.13285542 694.72643065 C234.52592737 696.84895329 215.91725023 697.31804553 197.20527363 697.2966516 C195.17046801 697.29801122 193.13566265 697.29979428 191.10085773 697.30196166 C185.63291804 697.3064737 180.16499747 697.3047712 174.69705749 697.30158257 C168.91859152 697.29902126 163.140127 697.30140736 157.36166096 697.30296874 C147.64741954 697.30478173 137.93318576 697.30240934 128.2189455 697.29762816 C117.0845525 697.2922103 105.95017789 697.29393366 94.81578535 697.29945457 C85.17584737 697.30403838 75.53591484 697.30461016 65.89597613 697.3020159 C60.17467484 697.30047877 54.4533821 697.30018657 48.73208141 697.30355239 C25.41123803 697.31542807 2.1194547 697.20484192 -21.18908978 696.40537047 C-28.782457 696.14563039 -36.37333145 696.01988472 -43.97026348 695.92116332 C-45.86257812 695.89494887 -45.86257812 695.89494887 -47.79312134 695.86820483 C-52.50755184 695.80291488 -57.22195416 695.74063247 -61.93657207 695.69045043 C-65.53130188 695.65077298 -69.12571253 695.5994109 -72.72026348 695.54616332 C-73.78894665 695.53774917 -74.85762981 695.52933501 -75.95869732 695.52066588 C-90.98723987 695.27242596 -90.98723987 695.27242596 -96.11870098 691.16725707 C-99.06404576 687.2401307 -98.79626556 683.78881568 -98.82182598 679.04225707 C-98.82879498 678.16201873 -98.83576397 677.28178039 -98.84294415 676.37486815 C-98.86106392 673.30561862 -98.86674128 670.23655902 -98.86870098 667.16725707 C-98.86970806 666.05844176 -98.87071514 664.94962646 -98.87175274 663.80721068 C-98.85733322 639.37333151 -98.13383082 614.96216996 -97.36870098 590.54225707 C-97.32078978 589.00259717 -97.32078978 589.00259717 -97.27191067 587.43183303 C-96.52391149 563.41170478 -95.7110176 539.39451392 -94.80763531 515.37972045 C-90.68523529 405.75600481 -90.97841404 296.58935532 -94.94627094 186.98692298 C-98.76433246 81.40946315 -98.76433246 81.40946315 -99.0914793 36.62502074 C-99.10927403 34.36469152 -99.13459182 32.1044057 -99.1683836 29.84425902 C-99.20879205 26.88883269 -99.21671287 23.93540813 -99.21245098 20.97975707 C-99.22870525 20.15399169 -99.24495953 19.32822631 -99.26170635 18.47743773 C-99.21330323 14.48497787 -98.83412371 11.92443657 -96.33647442 8.72926879 C-89.8981484 2.65993774 -81.34541657 2.58741785 -72.86870098 2.04225707 C-71.89288067 1.96878051 -70.91706036 1.89530395 -69.91166973 1.81960082 C-66.48208449 1.57246257 -63.05115415 1.37091806 -59.61870098 1.16725707 C-57.72069744 1.04112784 -57.72069744 1.04112784 -55.7843504 0.91245055 C-37.21299822 -0.21519818 -18.59715415 0.00249667 0 0 Z M99.38129902 166.16725707 C95.25628633 171.07449237 95.9003865 176.71326706 95.8571291 182.79445434 C95.83719521 183.97888562 95.81726131 185.16331691 95.79672337 186.38364005 C95.74486651 189.64802351 95.70615012 192.9122485 95.67330956 196.17686892 C95.63534745 199.65029956 95.58088064 203.12347617 95.52862263 206.59671569 C95.43048762 213.3098923 95.34871806 220.02317046 95.27347463 226.73663908 C95.21218307 232.19166761 95.14538151 237.64660332 95.0750246 243.10152221 C94.80478976 264.12308738 94.57586669 285.14485899 94.38129902 306.16725707 C94.37065166 307.30120154 94.36000431 308.43514602 94.34903431 309.60345244 C94.10982329 335.32854474 94.11936026 361.04620592 94.35102558 386.77129149 C94.37826097 389.82645959 94.40449453 392.88163479 94.43036914 395.93681467 C94.59657502 415.50195614 94.80604739 435.06631815 95.04876494 454.63065517 C95.114389 459.9837966 95.17096324 465.33698739 95.22395039 470.69026732 C95.28902891 477.22885509 95.36871872 483.76707959 95.46647787 490.30526328 C95.51676433 493.68940366 95.56071162 497.07332077 95.58805561 500.45773101 C95.6216337 504.17571791 95.67953225 507.89255951 95.74360371 511.61012816 C95.74792282 512.70044908 95.75224194 513.79076999 95.75669193 514.91413093 C95.89101068 520.96421863 96.36134109 524.54684176 100.38129902 529.16725707 C116.31050469 543.72899033 147.94706589 541.67544848 167.82783222 541.55837035 C171.07849932 541.54220884 174.32793331 541.55838238 177.57856464 541.57741332 C194.96375579 541.59562321 212.04404088 540.08500267 228.88129902 535.54225707 C229.82287861 535.29137328 230.7644582 535.04048949 231.7345705 534.78200316 C255.70654932 528.07697444 276.94269365 516.0202515 295.20551777 499.15553832 C296.95131275 497.56018886 298.71418004 496.06789975 300.56879902 494.60475707 C335.02230487 464.745052 351.02389255 413.02088698 354.38129902 369.16725707 C357.98268529 312.7746057 348.09000686 256.84364851 309.992383 213.2473352 C308.46906105 211.54086437 306.9304155 209.85033263 305.38129902 208.16725707 C304.62792255 207.34596313 304.62792255 207.34596313 303.85932636 206.50807738 C275.11598519 175.57065811 233.14556976 155.80500734 190.76237202 154.05939269 C187.88111304 154.00328222 185.0013618 153.97637811 182.11958027 153.96413207 C181.05249332 153.958432 179.98540638 153.95273192 178.88598347 153.94685912 C176.63109532 153.93745224 174.3761937 153.93089239 172.12128925 153.9270227 C168.74871447 153.91741354 165.37677559 153.88638827 162.00434589 153.85475707 C128.83639422 153.14597891 128.83639422 153.14597891 99.38129902 166.16725707 Z " fill="#000000" transform="translate(2996.61870098114,315.8327429294586)"/>
<path d="M0 0 C1.00796127 -0.00400314 2.01592255 -0.00800629 3.0544281 -0.01213074 C6.47404839 -0.01811569 9.89295135 0.0014223 13.3125 0.0234375 C14.50932404 0.02642853 15.70614807 0.02941956 16.9392395 0.03250122 C44.53239232 0.11151567 72.0959499 1.18622824 99.66503906 2.25805664 C103.22850279 2.39632972 106.79197913 2.53427094 110.35546875 2.671875 C111.22295872 2.70545294 112.09044868 2.73903088 112.98422623 2.77362633 C130.47218951 3.44611607 147.95808123 3.85021561 165.45874023 4.01928711 C166.3637175 4.031362 167.26869476 4.04343689 168.20109558 4.05587769 C169.8271574 4.07741416 171.45334535 4.09166685 173.07954407 4.09597778 C178.58019084 4.17549172 185.13258078 4.28883825 189.25 8.2734375 C190.98014857 11.73373464 191.43814057 14.83926909 191.42114258 18.68365479 C191.41958664 19.52751614 191.4180307 20.37137749 191.41642761 21.24081039 C191.40920181 22.15682148 191.40197601 23.07283257 191.39453125 24.01660156 C191.39032669 24.99133549 191.38612213 25.96606941 191.38179016 26.97034073 C191.36539812 30.1131253 191.34015956 33.2557331 191.3125 36.3984375 C191.30458435 37.38595505 191.2966687 38.3734726 191.28851318 39.39091492 C191.22277662 47.09702211 191.11816176 54.802345 191 62.5078125 C190.98016052 63.80553337 190.96032104 65.10325424 190.93988037 66.44029999 C190.24009183 111.10849206 188.80762049 155.76328416 187.52075195 200.41741943 C187.00304624 218.38485085 186.48959537 236.35240352 185.98011589 254.32007003 C185.79108149 260.98065191 185.59968758 267.64115997 185.40631419 274.30161721 C184.75350958 296.83864654 184.17832068 319.37547712 183.73706055 341.91772461 C183.71614947 342.97977411 183.6952384 344.04182361 183.67369366 345.13605642 C183.35567222 361.45294399 183.12610025 377.76690842 183.12719727 394.0871582 C183.12494852 397.79584277 183.10640615 401.50425527 183.08789062 405.21289062 C181.93196323 468.91454613 181.93196323 468.91454613 209.47265625 523.67578125 C221.68518423 535.38435347 237.87229122 541.37958405 254.3125 544.3984375 C255.27341553 544.57576416 256.23433105 544.75309082 257.22436523 544.93579102 C266.67663526 546.48734706 275.96343724 546.73841723 285.5246582 546.71411133 C288.11127056 546.71095426 290.69673122 546.73449705 293.28320312 546.75976562 C307.43554036 546.81451354 321.18306076 545.35246874 334.625 540.6484375 C335.37007812 540.39239746 336.11515625 540.13635742 336.8828125 539.87255859 C343.52793169 537.49253857 349.48503195 534.3973452 355.3125 530.3984375 C356.17101563 529.81578125 357.02953125 529.233125 357.9140625 528.6328125 C375.05277214 516.0042896 383.88615364 495.6741301 387.5625 475.2109375 C389.16863852 463.51939312 389.47130228 451.86550053 389.42578125 440.08203125 C389.42419825 439.28230833 389.42261524 438.48258541 389.42098427 437.65862846 C389.37255354 413.89726881 388.95960872 390.13844333 388.56489182 366.38085556 C388.51023414 363.07915114 388.45629615 359.77743619 388.40284795 356.475712 C387.59051049 306.29516437 386.52831127 256.12106822 385.3659668 205.94750977 C383.11787054 108.89436878 383.11787054 108.89436878 383.07226562 61.64453125 C383.06657879 56.61431446 383.04198983 51.58434192 383.01429367 46.55420494 C382.99576952 42.59605109 382.9904692 38.63796116 382.98892975 34.67976761 C382.98592544 32.81943915 382.97797317 30.95911121 382.96474457 29.09882736 C382.94775547 26.54793014 382.94953554 23.99770755 382.95605469 21.44677734 C382.9468399 20.70024399 382.93762512 19.95371063 382.9281311 19.18455505 C382.97172684 13.75909268 384.41310801 10.81584548 387.6875 6.6484375 C391.75328258 3.52091244 397.54827116 4.2334665 402.453125 4.1875 C404.20182876 4.16111007 405.95052637 4.13431099 407.69921875 4.10717773 C408.64587402 4.09387421 409.5925293 4.08057068 410.56787109 4.06686401 C427.57050223 3.82030091 444.55683947 3.34981722 461.546875 2.66796875 C462.38589293 2.6343606 463.22491085 2.60075245 464.08935356 2.56612587 C467.5366941 2.42788998 470.98402203 2.28934231 474.43134212 2.15059757 C500.40547154 1.10764242 526.37707238 0.09457869 552.37475586 -0.02243042 C554.76965149 -0.03341784 557.16452728 -0.05081441 559.55932617 -0.07498169 C562.81468894 -0.1041405 566.06876331 -0.10597076 569.32421875 -0.09765625 C570.26085861 -0.10876434 571.19749847 -0.11987244 572.16252136 -0.13131714 C577.83060367 -0.07049491 580.97060498 0.66954659 585.3125 4.3984375 C586.51869126 6.81082002 586.45210161 8.34433217 586.47363281 11.04052734 C586.48783264 12.52278557 586.48783264 12.52278557 586.50231934 14.0349884 C586.50671021 15.13203598 586.51110107 16.22908356 586.515625 17.359375 C586.52607849 19.10543282 586.52607849 19.10543282 586.53674316 20.88676453 C586.55465166 24.84900394 586.56096723 28.81116644 586.5625 32.7734375 C586.56338371 33.81587679 586.56338371 33.81587679 586.56428528 34.87937546 C586.58821678 75.1901919 585.03444661 115.45509667 583.55651855 155.7331543 C583.29973654 162.7354211 583.04655711 169.73781604 582.79394531 176.74023438 C582.75004921 177.95650041 582.70615311 179.17276644 582.66092682 180.42588902 C582.48155869 185.39673998 582.30228357 190.36759429 582.12313843 195.33845329 C581.68579784 207.47225649 581.24817435 219.60603805 580.79813576 231.73937798 C580.63029559 236.27012158 580.46408344 240.80092428 580.29803085 245.3317337 C580.22203096 247.39398322 580.14530367 249.45620614 580.06766129 251.51839447 C579.7932226 258.81105747 579.54312701 266.1042564 579.3125 273.3984375 C579.29084581 274.08036431 579.26919162 274.76229112 579.24688125 275.46488237 C578.49794722 299.23194457 578.1839476 322.9719854 578.26790047 346.75023651 C578.2868447 352.13135604 578.29595557 357.51247012 578.30381775 362.89361572 C578.32750178 378.16104091 578.36368654 393.42842346 578.40844727 408.69580078 C578.43331075 417.20549994 578.45047432 425.71518345 578.46000665 434.22491384 C578.46536336 438.68058946 578.47435982 443.13617989 578.49339485 447.59181976 C579.10019728 592.75426002 579.10019728 592.75426002 533.3125 641.3984375 C532.52166016 642.28595703 532.52166016 642.28595703 531.71484375 643.19140625 C490.12053759 687.9770914 413.56012436 698.20021173 356.5 703.6484375 C355.63047699 703.73161224 354.76095398 703.81478699 353.86508179 703.90048218 C351.32073659 704.140393 348.77583518 704.3727583 346.23046875 704.6015625 C345.51145386 704.66799454 344.79243896 704.73442657 344.05163574 704.8028717 C328.17588844 706.18262202 312.29914369 706.56923308 296.37109375 706.6015625 C295.40387957 706.60438988 294.43666538 706.60721725 293.44014168 706.61013031 C288.30180736 706.62499943 283.16350012 706.63430108 278.02514648 706.63867188 C273.88280221 706.64301438 269.74067118 706.65675867 265.59838867 706.6796875 C190.31794103 707.08761456 98.15636159 705.97569009 40.3125 650.3984375 C39.84102539 649.95806152 39.36955078 649.51768555 38.88378906 649.06396484 C0.35548733 613.0298505 -5.40269191 561.64224709 -7.13085938 511.52539062 C-7.17017578 510.30787109 -7.20949219 509.09035156 -7.25 507.8359375 C-7.29318359 506.67642578 -7.33636719 505.51691406 -7.38085938 504.32226562 C-8.12238484 481.78224541 -7.7078482 459.26698347 -6.83163452 436.73904419 C-4.23913881 367.65943543 -5.22101344 298.56000551 -8.28576183 229.51831055 C-8.80567582 217.78368307 -9.30017457 206.04797643 -9.79736519 194.31236839 C-10.51421031 177.39268632 -11.23337288 160.47312982 -11.97338867 143.55444336 C-13.41643756 110.519935 -14.70033302 77.49940395 -15.30004883 44.43725586 C-15.35079639 41.74499033 -15.40519794 39.05310909 -15.46606445 36.36108398 C-15.55590273 32.38545502 -15.62824529 28.40960638 -15.69921875 24.43359375 C-15.72827805 23.23783218 -15.75733734 22.04207062 -15.78727722 20.81007385 C-16.00500282 6.41074435 -16.00500282 6.41074435 -12.16796875 1.42333984 C-8.1772468 -0.22558247 -4.27593188 -0.02712551 0 0 Z " fill="#000000" transform="translate(5058.6875,316.6015625)"/>
<path d="M0 0 C1.00796127 -0.00400314 2.01592255 -0.00800629 3.0544281 -0.01213074 C6.47404839 -0.01811569 9.89295135 0.0014223 13.3125 0.0234375 C14.50932404 0.02642853 15.70614807 0.02941956 16.9392395 0.03250122 C44.53239232 0.11151567 72.0959499 1.18622824 99.66503906 2.25805664 C103.22850279 2.39632972 106.79197913 2.53427094 110.35546875 2.671875 C111.22295872 2.70545294 112.09044868 2.73903088 112.98422623 2.77362633 C130.47218951 3.44611607 147.95808123 3.85021561 165.45874023 4.01928711 C166.3637175 4.031362 167.26869476 4.04343689 168.20109558 4.05587769 C169.8271574 4.07741416 171.45334535 4.09166685 173.07954407 4.09597778 C178.58019084 4.17549172 185.13258078 4.28883825 189.25 8.2734375 C190.98014857 11.73373464 191.43814057 14.83926909 191.42114258 18.68365479 C191.41958664 19.52751614 191.4180307 20.37137749 191.41642761 21.24081039 C191.40920181 22.15682148 191.40197601 23.07283257 191.39453125 24.01660156 C191.39032669 24.99133549 191.38612213 25.96606941 191.38179016 26.97034073 C191.36539812 30.1131253 191.34015956 33.2557331 191.3125 36.3984375 C191.30458435 37.38595505 191.2966687 38.3734726 191.28851318 39.39091492 C191.22277662 47.09702211 191.11816176 54.802345 191 62.5078125 C190.98016052 63.80553337 190.96032104 65.10325424 190.93988037 66.44029999 C190.24009183 111.10849206 188.80762049 155.76328416 187.52075195 200.41741943 C187.00304624 218.38485085 186.48959537 236.35240352 185.98011589 254.32007003 C185.79108149 260.98065191 185.59968758 267.64115997 185.40631419 274.30161721 C184.75350958 296.83864654 184.17832068 319.37547712 183.73706055 341.91772461 C183.71614947 342.97977411 183.6952384 344.04182361 183.67369366 345.13605642 C183.35567222 361.45294399 183.12610025 377.76690842 183.12719727 394.0871582 C183.12494852 397.79584277 183.10640615 401.50425527 183.08789062 405.21289062 C181.93196323 468.91454613 181.93196323 468.91454613 209.47265625 523.67578125 C221.68518423 535.38435347 237.87229122 541.37958405 254.3125 544.3984375 C255.27341553 544.57576416 256.23433105 544.75309082 257.22436523 544.93579102 C266.67663526 546.48734706 275.96343724 546.73841723 285.5246582 546.71411133 C288.11127056 546.71095426 290.69673122 546.73449705 293.28320312 546.75976562 C307.43554036 546.81451354 321.18306076 545.35246874 334.625 540.6484375 C335.37007812 540.39239746 336.11515625 540.13635742 336.8828125 539.87255859 C343.52793169 537.49253857 349.48503195 534.3973452 355.3125 530.3984375 C356.17101563 529.81578125 357.02953125 529.233125 357.9140625 528.6328125 C375.05277214 516.0042896 383.88615364 495.6741301 387.5625 475.2109375 C389.16863852 463.51939312 389.47130228 451.86550053 389.42578125 440.08203125 C389.42419825 439.28230833 389.42261524 438.48258541 389.42098427 437.65862846 C389.37255354 413.89726881 388.95960872 390.13844333 388.56489182 366.38085556 C388.51023414 363.07915114 388.45629615 359.77743619 388.40284795 356.475712 C387.59051049 306.29516437 386.52831127 256.12106822 385.3659668 205.94750977 C383.11787054 108.89436878 383.11787054 108.89436878 383.07226562 61.64453125 C383.06657879 56.61431446 383.04198983 51.58434192 383.01429367 46.55420494 C382.99576952 42.59605109 382.9904692 38.63796116 382.98892975 34.67976761 C382.98592544 32.81943915 382.97797317 30.95911121 382.96474457 29.09882736 C382.94775547 26.54793014 382.94953554 23.99770755 382.95605469 21.44677734 C382.9468399 20.70024399 382.93762512 19.95371063 382.9281311 19.18455505 C382.97172684 13.75909268 384.41310801 10.81584548 387.6875 6.6484375 C391.75328258 3.52091244 397.54827116 4.2334665 402.453125 4.1875 C404.20182876 4.16111007 405.95052637 4.13431099 407.69921875 4.10717773 C408.64587402 4.09387421 409.5925293 4.08057068 410.56787109 4.06686401 C427.57050223 3.82030091 444.55683947 3.34981722 461.546875 2.66796875 C462.38589293 2.6343606 463.22491085 2.60075245 464.08935356 2.56612587 C467.5366941 2.42788998 470.98402203 2.28934231 474.43134212 2.15059757 C500.40547154 1.10764242 526.37707238 0.09457869 552.37475586 -0.02243042 C554.76965149 -0.03341784 557.16452728 -0.05081441 559.55932617 -0.07498169 C562.81468894 -0.1041405 566.06876331 -0.10597076 569.32421875 -0.09765625 C570.26085861 -0.10876434 571.19749847 -0.11987244 572.16252136 -0.13131714 C577.83060367 -0.07049491 580.97060498 0.66954659 585.3125 4.3984375 C586.51869126 6.81082002 586.45210161 8.34433217 586.47363281 11.04052734 C586.48783264 12.52278557 586.48783264 12.52278557 586.50231934 14.0349884 C586.50671021 15.13203598 586.51110107 16.22908356 586.515625 17.359375 C586.52607849 19.10543282 586.52607849 19.10543282 586.53674316 20.88676453 C586.55465166 24.84900394 586.56096723 28.81116644 586.5625 32.7734375 C586.56338371 33.81587679 586.56338371 33.81587679 586.56428528 34.87937546 C586.58821678 75.1901919 585.03444661 115.45509667 583.55651855 155.7331543 C583.29973654 162.7354211 583.04655711 169.73781604 582.79394531 176.74023438 C582.75004921 177.95650041 582.70615311 179.17276644 582.66092682 180.42588902 C582.48155869 185.39673998 582.30228357 190.36759429 582.12313843 195.33845329 C581.68579784 207.47225649 581.24817435 219.60603805 580.79813576 231.73937798 C580.63029559 236.27012158 580.46408344 240.80092428 580.29803085 245.3317337 C580.22203096 247.39398322 580.14530367 249.45620614 580.06766129 251.51839447 C579.7932226 258.81105747 579.54312701 266.1042564 579.3125 273.3984375 C579.29084581 274.08036431 579.26919162 274.76229112 579.24688125 275.46488237 C578.49794722 299.23194457 578.1839476 322.9719854 578.26790047 346.75023651 C578.2868447 352.13135604 578.29595557 357.51247012 578.30381775 362.89361572 C578.32750178 378.16104091 578.36368654 393.42842346 578.40844727 408.69580078 C578.43331075 417.20549994 578.45047432 425.71518345 578.46000665 434.22491384 C578.46536336 438.68058946 578.47435982 443.13617989 578.49339485 447.59181976 C579.10019728 592.75426002 579.10019728 592.75426002 533.3125 641.3984375 C532.52166016 642.28595703 532.52166016 642.28595703 531.71484375 643.19140625 C490.12053759 687.9770914 413.56012436 698.20021173 356.5 703.6484375 C355.63047699 703.73161224 354.76095398 703.81478699 353.86508179 703.90048218 C351.32073659 704.140393 348.77583518 704.3727583 346.23046875 704.6015625 C345.51145386 704.66799454 344.79243896 704.73442657 344.05163574 704.8028717 C328.17588844 706.18262202 312.29914369 706.56923308 296.37109375 706.6015625 C295.40387957 706.60438988 294.43666538 706.60721725 293.44014168 706.61013031 C288.30180736 706.62499943 283.16350012 706.63430108 278.02514648 706.63867188 C273.88280221 706.64301438 269.74067118 706.65675867 265.59838867 706.6796875 C190.31794103 707.08761456 98.15636159 705.97569009 40.3125 650.3984375 C39.84102539 649.95806152 39.36955078 649.51768555 38.88378906 649.06396484 C0.35548733 613.0298505 -5.40269191 561.64224709 -7.13085938 511.52539062 C-7.17017578 510.30787109 -7.20949219 509.09035156 -7.25 507.8359375 C-7.29318359 506.67642578 -7.33636719 505.51691406 -7.38085938 504.32226562 C-8.12238484 481.78224541 -7.7078482 459.26698347 -6.83163452 436.73904419 C-4.23913881 367.65943543 -5.22101344 298.56000551 -8.28576183 229.51831055 C-8.80567582 217.78368307 -9.30017457 206.04797643 -9.79736519 194.31236839 C-10.51421031 177.39268632 -11.23337288 160.47312982 -11.97338867 143.55444336 C-13.41643756 110.519935 -14.70033302 77.49940395 -15.30004883 44.43725586 C-15.35079639 41.74499033 -15.40519794 39.05310909 -15.46606445 36.36108398 C-15.55590273 32.38545502 -15.62824529 28.40960638 -15.69921875 24.43359375 C-15.72827805 23.23783218 -15.75733734 22.04207062 -15.78727722 20.81007385 C-16.00500282 6.41074435 -16.00500282 6.41074435 -12.16796875 1.42333984 C-8.1772468 -0.22558247 -4.27593188 -0.02712551 0 0 Z " fill="#000000" transform="translate(1169.6875,316.6015625)"/>
<path d="M0 0 C5.55577862 0.00258359 11.11155584 0.00016937 16.66733456 -0.00138617 C25.99979612 -0.00319256 35.3322497 -0.00084407 44.66471004 0.00395441 C55.32713473 0.00937476 65.98954022 0.00764434 76.65196443 0.00212801 C85.9245241 -0.00247048 95.19707813 -0.00302082 104.46963859 -0.00043333 C109.95516983 0.00109554 115.44069219 0.00142043 120.9262228 -0.00196981 C142.69416313 -0.01355424 164.45076004 0.08493849 186.21353817 0.59184504 C187.0952212 0.61205768 187.97690423 0.63227033 188.88530493 0.65309548 C237.96956257 1.80782634 286.14175533 8.27130433 330.67545223 30.1343255 C331.42407528 30.50170832 332.17269833 30.86909113 332.94400692 31.24760675 C388.83331171 59.03271568 432.60979393 109.43351715 452.55045223 168.5093255 C462.68462958 199.70801796 466.91018115 231.73336625 466.86295223 264.4468255 C466.86204586 265.61977671 466.86204586 265.61977671 466.86112118 266.81642389 C466.71411867 337.47174581 448.60130076 408.51842296 400.67545223 462.1343255 C400.18544735 462.68604425 399.69544247 463.237763 399.19058895 463.8062005 C358.07148566 509.90823595 299.78556036 532.77232217 238.89029598 536.5093255 C215.61932241 537.73373451 192.29831477 536.78936742 169.04263973 535.6187005 C150.669336 534.69406576 132.31630286 533.90019102 113.91693783 533.7808404 C111.94232958 533.76663893 109.96775637 533.74583936 107.99329281 533.71803522 C105.24637102 533.68231357 102.50070396 533.67385042 99.75357723 533.673388 C98.54868397 533.65195986 98.54868397 533.65195986 97.31944942 533.63009882 C91.70314559 533.67493519 87.35668695 534.96067566 82.67545223 538.1343255 C78.46255492 543.42338867 79.18444013 550.05350317 79.23795223 556.5093255 C79.24604916 558.43699762 79.24604916 558.43699762 79.25430965 560.40361261 C79.50828573 582.77281532 82.10406055 605.11788393 84.15933895 627.37553644 C85.63126237 643.37644213 86.9700549 659.3618282 87.20316219 675.43684626 C87.22606341 676.88337952 87.25828873 678.32980012 87.3005743 679.77589655 C87.35376688 681.75936609 87.36136665 683.74390043 87.36685848 685.7280755 C87.38534847 687.40933527 87.38534847 687.40933527 87.404212 689.12455988 C86.5746217 692.5507539 85.28980845 694.13009339 82.44386959 696.20869684 C79.3739153 697.81557865 76.63215586 697.72795421 73.20670223 697.69291925 C72.45274166 697.69135828 71.69878109 697.68979731 70.92197323 697.68818903 C68.33890885 697.67489351 65.75801649 697.62350354 63.17545223 697.5718255 C61.2714959 697.55201428 59.36752281 697.53376638 57.46353817 697.51689386 C34.58599381 697.26287367 11.70647733 696.55528043 -11.16317081 695.91728449 C-27.5301634 695.46315622 -43.89380063 695.05899455 -60.26595402 694.84916925 C-61.01287132 694.83931561 -61.75978863 694.82946196 -62.52933979 694.81930971 C-68.9369186 694.73495993 -75.34448497 694.65216827 -81.75240421 694.59846735 C-85.56433116 694.56576085 -89.3760242 694.52253417 -93.18782902 694.4780755 C-94.84643703 694.47027315 -94.84643703 694.47027315 -96.53855228 694.46231318 C-112.20131053 694.25756275 -112.20131053 694.25756275 -116.82454777 689.6343255 C-119.28572816 685.53235818 -119.45516633 683.2571822 -119.46981144 678.42412043 C-119.47312473 677.72029922 -119.47643803 677.01647802 -119.47985172 676.29132891 C-119.48938869 673.89913531 -119.4911951 671.50700572 -119.49251652 669.11479425 C-119.4964383 667.38090205 -119.50053795 665.64701024 -119.50479984 663.91311884 C-119.51427634 659.08271426 -119.51495708 654.25234307 -119.51302433 649.42193079 C-119.51203828 646.29169788 -119.51303833 643.16146989 -119.51424503 640.03123713 C-119.51808647 612.90457336 -119.31106908 585.78482447 -118.87532902 558.66166925 C-118.85910154 557.64830539 -118.85910154 557.64830539 -118.84254622 556.61446953 C-118.73023034 549.60786711 -118.61596706 542.60129685 -118.50116485 535.59473479 C-117.56869973 478.64248601 -117.09900688 421.70128484 -117.07888651 364.74099588 C-117.07637047 358.11202631 -117.0689378 351.48307591 -117.05941105 344.8541131 C-116.99683585 297.91109061 -117.54139074 251.0455055 -119.32454777 204.1343255 C-119.36448605 203.07571692 -119.40442432 202.01710833 -119.44557285 200.92642069 C-119.89999705 188.97013054 -120.42484021 177.01829799 -121.01699924 165.06806803 C-121.14205378 162.53283872 -121.2645179 159.99749379 -121.38649845 157.46211481 C-122.90749063 125.94711294 -124.86448179 94.46552362 -127.02854443 62.98868418 C-127.17412985 60.86246749 -127.31787184 58.73613355 -127.46112919 56.60975885 C-127.8927549 50.23118038 -128.3398798 43.85511715 -128.84775829 37.48209524 C-129.07526479 34.60118551 -129.29015713 31.71940738 -129.50323963 28.83739901 C-129.65629122 26.83376212 -129.8269205 24.83149229 -129.9980402 22.82931757 C-130.0856461 21.6264863 -130.17325199 20.42365503 -130.26351261 19.18437433 C-130.34789585 18.13260508 -130.43227909 17.08083582 -130.5192194 15.99719477 C-130.28634823 12.57255752 -129.37781585 10.85719917 -127.32454777 8.1343255 C-117.20111594 2.06026641 -102.8462124 2.74110124 -91.38704777 2.0718255 C-89.582038 1.95484308 -89.582038 1.95484308 -87.74056339 1.83549738 C-58.51094947 0.05553599 -29.27160965 -0.01795768 0 0 Z M75.40201473 164.923388 C61.33204856 182.94058451 71.10097254 325.31603415 72.55649471 355.54747248 C72.66304286 357.86447095 72.74695942 360.18096309 72.82437801 362.4990716 C72.87964657 363.67163507 72.93491512 364.84419855 72.99185848 366.05229425 C73.04708675 367.46224665 73.04708675 367.46224665 73.10343075 368.90068293 C73.50177438 371.28707881 73.50177438 371.28707881 75.55289364 372.89702082 C93.50633455 383.36263372 123.47560932 379.48486847 143.62003231 379.44999933 C146.54108615 379.44533899 149.46172649 379.45241668 152.38272762 379.47050714 C175.69507199 379.67196333 175.69507199 379.67196333 198.67545223 376.1343255 C199.59527889 375.91526545 200.51510555 375.69620539 201.46280575 375.47050714 C203.61532624 374.89669586 205.69935175 374.24737278 207.80045223 373.5093255 C208.89909603 373.12864923 208.89909603 373.12864923 210.01993465 372.74028254 C231.33579052 364.99198154 247.85540552 350.93270945 257.58145809 330.28471613 C272.97813994 295.883727 272.75840606 252.01703325 259.86295223 216.7593255 C251.63176499 195.40004788 236.98694881 179.40521833 216.67545223 169.1343255 C215.74474911 168.66252863 214.81404598 168.19073175 213.85513973 167.704638 C197.89830385 160.38540559 180.12648898 157.98127819 162.76529598 157.96635675 C161.39310835 157.96313304 160.02092105 157.95976819 158.64873409 157.95627069 C155.7698554 157.95029617 152.89100661 157.94842853 150.01212215 157.94902277 C147.10613332 157.94910328 144.20030463 157.94228101 141.29434872 157.92851496 C106.76370028 155.48076777 106.76370028 155.48076777 75.40201473 164.923388 Z " fill="#000000" transform="translate(2001.3245477676392,316.865674495697)"/>
<path d="M0 0 C1.08358921 -0.01070652 2.16717842 -0.02141304 3.28360367 -0.032444 C4.78094355 -0.02940577 4.78094355 -0.02940577 6.30853271 -0.02630615 C7.1935635 -0.02653652 8.07859428 -0.02676689 8.99044418 -0.02700424 C11.13378906 0.22558594 11.13378906 0.22558594 13.13378906 2.22558594 C14.56332139 6.93037587 14.28328911 11.85620211 14.25878906 16.72558594 C14.25685547 17.69061035 14.25492188 18.65563477 14.25292969 19.64990234 C14.21593535 26.13932629 14.0309244 32.61457128 13.77246094 39.09863281 C13.52004212 45.47309667 13.31506401 51.84873628 13.13378906 58.22558594 C13.10194519 59.31836853 13.10194519 59.31836853 13.06945801 60.43322754 C12.43477619 83.08564293 13.40846575 105.10264777 16.35498047 127.58691406 C17.48466492 136.29625776 18.41333947 144.9505249 18.60253906 153.73730469 C18.63496704 154.52007278 18.66739502 155.30284088 18.70080566 156.10932922 C18.71677266 159.97512479 18.28578423 162.00992239 16.04199219 165.19360352 C9.2637865 169.92958454 0.48290516 168.16695431 -7.40917969 167.80761719 C-8.78434276 167.74936248 -10.1595266 167.69159604 -11.534729 167.63427734 C-15.26387687 167.47688499 -18.99258798 167.31074414 -22.72126389 167.14258194 C-25.0553149 167.03801408 -27.38946251 166.93597355 -29.72366333 166.83480835 C-66.78425964 165.22758315 -103.82648118 163.25133005 -140.86621094 161.22558594 C-143.12973772 249.4549123 -144.70963411 337.92947683 -140.34570312 473.9140625 C-139.54147595 494.23364428 -138.85238692 514.55759837 -138.1394577 534.8805418 C-137.84044209 543.38973855 -137.53435521 551.89865843 -137.22460938 560.4074707 C-134.68510658 630.35531438 -134.68510658 630.35531438 -134.62597656 663.53710938 C-134.61928665 665.80699746 -134.60524972 668.07687242 -134.58496094 670.34667969 C-134.55473186 673.73611512 -134.54398219 677.12509409 -134.53808594 680.51464844 C-134.52573914 681.52580719 -134.51339233 682.53696594 -134.50067139 683.57876587 C-134.52870205 692.31031849 -134.52870205 692.31031849 -137.86621094 696.22558594 C-159.68084665 710.76867642 -210.29102089 703.53674949 -235.46728516 703.48632812 C-241.21201353 703.4749345 -246.95655663 703.48170976 -252.70127869 703.49320221 C-329.03402937 703.62317335 -329.03402937 703.62317335 -339.86621094 696.22558594 C-344.9277863 690.67126003 -344.43059716 685.10232986 -344.36230469 677.85839844 C-344.36502884 676.59984543 -344.36775299 675.34129242 -344.37055969 674.04460144 C-344.37528589 670.55298077 -344.35181989 667.06206313 -344.32139587 663.57059097 C-344.30352656 661.32744081 -344.2927631 659.08435935 -344.28405762 656.84115601 C-344.1279657 619.06667628 -342.6953602 581.32696877 -341.22893238 543.58495903 C-340.93125391 535.92316006 -340.6382933 528.26119029 -340.34765625 520.59912109 C-340.2818121 518.86380898 -340.2818121 518.86380898 -340.21463776 517.09344006 C-340.12518031 514.73519584 -340.03574101 512.37695094 -339.94631958 510.01870537 C-339.37827897 495.03836248 -338.80919636 480.05807672 -338.22460938 465.07836914 C-337.79178787 453.98209771 -337.37254659 442.88536734 -336.96202469 431.78824997 C-336.87406819 429.43573843 -336.78346978 427.08334979 -336.69161987 424.73098755 C-335.62141304 397.11564444 -335.6691022 369.49140941 -335.67773438 341.85912704 C-335.67855476 338.54415773 -335.67815326 335.2291918 -335.67709148 331.91422266 C-335.66662576 295.458512 -335.94182875 259.02776054 -337.15454102 222.58959961 C-337.22389845 220.49365779 -337.29309377 218.397711 -337.36193275 216.30175209 C-337.42737178 214.30932798 -337.49324526 212.31691816 -337.55912781 210.32450867 C-338.03729323 194.62766237 -337.95897313 178.92781654 -337.86621094 163.22558594 C-338.59456146 163.29409256 -339.32291199 163.36259918 -340.07333374 163.43318176 C-386.01518114 167.7443612 -431.90940521 171.70619135 -478.05371094 173.03808594 C-479.35601654 173.07961288 -479.35601654 173.07961288 -480.68463135 173.12197876 C-483.11352426 173.19614544 -485.54224129 173.25471992 -487.97167969 173.30761719 C-489.02422691 173.34157593 -489.02422691 173.34157593 -490.09803772 173.3762207 C-494.78510939 173.45162113 -498.48126345 172.73630168 -502.86621094 171.22558594 C-503.86621094 170.22558594 -503.86621094 170.22558594 -504.08105469 166.50292969 C-503.99961024 160.12645588 -502.68876634 154.01966205 -501.42871094 147.78808594 C-501.16389922 146.43046547 -500.89976047 145.0727136 -500.63623047 143.71484375 C-499.11834557 135.98347073 -497.4353019 128.30666508 -495.60449219 120.64355469 C-490.20421408 97.74757141 -487.34197701 75.37722431 -485.90505981 51.89247131 C-485.37136274 43.24648311 -484.66900116 34.69932415 -483.38964844 26.12792969 C-483.26965485 25.32175201 -483.14966125 24.51557434 -483.02603149 23.68496704 C-480.50616418 7.8807078 -480.50616418 7.8807078 -474.86621094 3.22558594 C-466.94062949 1.70639485 -457.7555683 3.88661674 -449.76937866 4.76373291 C-416.50459973 8.37357759 -383.12234732 10.13728522 -349.69042969 11.28808594 C-347.80846704 11.35287077 -347.80846704 11.35287077 -345.88848495 11.41896439 C-316.43749206 12.40901651 -286.99157888 12.62971881 -257.52454519 12.60228348 C-255.46138718 12.60056104 -253.39823016 12.59967323 -251.33507156 12.59896851 C-210.92073752 12.58200989 -170.72529413 12.02606511 -130.41791916 8.81860542 C-116.2777551 7.69757214 -102.12975464 6.67550635 -87.98362732 5.63305664 C-85.49795257 5.44974432 -83.01228058 5.26639461 -80.52661133 5.08300781 C-79.29014956 4.99185699 -78.0536878 4.90070618 -76.7797575 4.80679321 C-69.45832178 4.26534292 -62.13814314 3.70973759 -54.81879711 3.14075089 C-50.21405946 2.78388718 -45.60878261 2.43431909 -41.00340843 2.08577728 C-38.86753771 1.92234217 -36.73191088 1.75567767 -34.59658241 1.58530426 C-23.06048994 0.66622126 -11.5754745 0.06618572 0 0 Z " fill="#000000" transform="translate(1056.8662109375,310.7744140625)"/>
<path d="M0 0 C5.5654115 5.92144792 7.86301121 14.20003342 10.7578125 21.65625 C22.49864413 51.3825213 36.43046924 80.3088088 50.45703125 109.015625 C51.10436218 110.34075607 51.10436218 110.34075607 51.76477051 111.69265747 C53.87424195 116.007337 55.98961474 120.31899515 58.11376953 124.62646484 C58.88706838 126.20148556 59.66034425 127.77651756 60.43359375 129.3515625 C60.95755989 130.40727448 60.95755989 130.40727448 61.49211121 131.48431396 C67.59239643 143.93518603 67.59239643 143.93518603 66.6328125 149.34375 C65.3203125 152.46875 65.3203125 152.46875 63.3203125 154.46875 C58.65310487 155.66110231 54.85545275 155.26780857 50.1328125 154.53125 C15.95316893 149.9719139 -15.97098649 155.7342947 -43.65234375 176.72265625 C-53.81130084 185.28805145 -61.58647727 198.01771881 -62.87255859 211.48901367 C-64.3127503 249.88103326 -40.44631372 278.47708615 -17.29370117 306.78125 C-13.17956031 311.81851183 -9.21673268 316.9526258 -5.2734375 322.125 C-2.3175741 325.96762241 0.75148572 329.71618114 3.8203125 333.46875 C8.60447001 339.32130907 13.27158346 345.24359313 17.85546875 351.25390625 C20.03354915 354.1062171 22.24775094 356.92855322 24.47241211 359.74462891 C26.32853582 362.09586888 28.17394017 364.45543034 30.01953125 366.81494141 C31.22437996 368.34678171 32.44362255 369.86727101 33.6640625 371.38671875 C40.29177939 379.84639259 45.39540725 388.95078013 50.3203125 398.46875 C50.91658447 399.62020508 50.91658447 399.62020508 51.52490234 400.79492188 C60.5436515 418.4524481 66.77887445 436.96082853 70.3203125 456.46875 C70.54589844 457.68691406 70.77148438 458.90507813 71.00390625 460.16015625 C78.93638111 511.74859621 63.93639196 566.49783583 34.01171875 608.7265625 C31.83034677 611.68294533 29.59656669 614.58495466 27.3203125 617.46875 C26.63710938 618.3453125 25.95390625 619.221875 25.25 620.125 C11.28293271 637.64825786 -4.82619361 653.5366695 -22.73535156 667.00439453 C-24.10128805 668.03313474 -25.46219188 669.06857479 -26.81933594 670.10888672 C-71.41262387 704.2816506 -142.39941665 741.8617751 -200.16015625 739.078125 C-204.89974707 737.93180536 -207.59320757 735.07980952 -210.6796875 731.46875 C-211.20401367 730.88923584 -211.72833984 730.30972168 -212.26855469 729.71264648 C-216.30996348 725.21198669 -219.8654136 720.5870114 -223.1796875 715.53125 C-223.68322754 714.76820557 -224.18676758 714.00516113 -224.70556641 713.21899414 C-236.91898619 694.51290407 -247.95513221 675.05638212 -258.6796875 655.46875 C-259.15078949 654.60839142 -259.15078949 654.60839142 -259.63140869 653.73065186 C-292.30238841 594.00436945 -292.30238841 594.00436945 -289.6796875 582.46875 C-285.36910715 576.68586736 -279.97755007 575.81194842 -273.1796875 574.234375 C-272.04350479 573.95499588 -270.90732208 573.67561676 -269.73670959 573.38777161 C-267.30957085 572.79203562 -264.8805866 572.20377735 -262.44998169 571.62234497 C-256.1611408 570.11515091 -249.88774981 568.54623259 -243.61328125 566.98046875 C-242.38854599 566.67600327 -241.16381073 566.37153778 -239.90196228 566.05784607 C-209.86724351 558.55155221 -179.98142358 550.0010801 -157.6796875 527.46875 C-156.94105469 526.75203125 -156.20242187 526.0353125 -155.44140625 525.296875 C-144.47379932 513.96723056 -137.36272915 497.20716806 -136.6796875 481.46875 C-136.628125 480.45683594 -136.5765625 479.44492187 -136.5234375 478.40234375 C-135.61237785 444.42741089 -156.4916167 417.79409619 -177.6796875 393.46875 C-178.75689745 392.22689812 -179.83371624 390.98470683 -180.91015625 389.7421875 C-182.54664302 387.85327436 -184.18333557 385.96454582 -185.82128906 384.0769043 C-190.97007388 378.1419692 -196.08366745 372.17729059 -201.19140625 366.20703125 C-203.20137624 363.85942851 -205.21500245 361.51497393 -207.22851562 359.17041016 C-208.73495063 357.41468446 -210.23881893 355.65678917 -211.7421875 353.8984375 C-213.65026693 351.66689078 -215.56746738 349.4437646 -217.4921875 347.2265625 C-254.15849212 304.79609435 -270.23486183 252.08055805 -266.46142578 196.23876953 C-263.25427665 162.14378695 -250.11264069 131.03538604 -228.6796875 104.46875 C-228.20305664 103.8711084 -227.72642578 103.2734668 -227.23535156 102.65771484 C-195.77324136 63.49742874 -148.36001764 36.26547532 -101.6796875 19.46875 C-100.65601074 19.0965332 -99.63233398 18.72431641 -98.57763672 18.34082031 C-18.3984022 -10.51337269 -18.3984022 -10.51337269 0 0 Z " fill="#000000" transform="translate(409.6796875,297.53125)"/>
<path d="M0 0 C1.27686676 0.00068733 1.27686676 0.00068733 2.57952881 0.00138855 C4.39531841 0.00441521 6.21110531 0.0123138 8.02685547 0.0246582 C10.71722363 0.04244223 13.40723662 0.04517085 16.09765625 0.04492188 C25.16277767 0.06389103 34.1926839 0.27666726 43.24609375 0.734375 C57.34340671 1.42635413 71.44313222 1.38227591 85.5534668 1.36083984 C89.3505729 1.35513787 93.14760892 1.35853023 96.94471264 1.36428833 C110.9525299 1.38222392 124.93013934 1.34270631 138.92260742 0.60018921 C147.9057482 0.12842807 156.88166601 0.00968031 165.8762207 -0.00976562 C168.66840601 -0.01974217 171.45993053 -0.05107059 174.25195312 -0.08203125 C176.04947493 -0.08854086 177.8470018 -0.09379927 179.64453125 -0.09765625 C180.88034691 -0.11617645 180.88034691 -0.11617645 182.14112854 -0.1350708 C186.74227599 -0.11712568 189.86885364 0.1553946 193.546875 3.23046875 C202.81587992 16.01114829 195.27658208 55.14624243 194.75390625 70.41796875 C194.6907104 72.28545115 194.6907104 72.28545115 194.62623787 74.19066048 C193.52243539 106.44936642 191.93269206 138.68501742 190.34168851 170.92267853 C189.70351731 183.85377299 189.07180708 196.7851834 188.44285351 209.71672922 C188.22429293 214.20690729 188.00364412 218.69697592 187.78124142 223.18696523 C186.46650586 249.76134464 185.39318594 276.30396214 185.30859375 302.9140625 C185.30383278 304.11173248 185.29907181 305.30940247 185.29416656 306.54336548 C185.26068474 315.2108966 185.24433482 323.87837016 185.2364707 332.54595327 C185.23436504 334.67805286 185.23157713 336.81015069 185.22865677 338.9422493 C185.14841065 401.65341798 186.4766107 464.32236329 188.03588867 527.01147461 C188.9517125 563.89693656 189.77170367 600.78043756 190.2608521 637.67439771 C190.30043455 640.55291219 190.34393149 643.43134224 190.38859367 646.30978203 C190.45778628 650.80506953 190.51609669 655.30036903 190.56585574 659.7959125 C190.58559388 661.43910832 190.60881582 663.08226678 190.63588071 664.72535825 C190.98068146 686.11925761 190.98068146 686.11925761 187.21454716 690.93362522 C168.25572527 705.67670609 110.88941339 697.53375492 88.27246094 697.49121094 C82.14737181 697.47980614 76.02245789 697.48640904 69.89737511 697.49835587 C65.08729801 697.50567559 60.27726063 697.50324109 55.46718216 697.49810028 C53.21197106 697.4967922 50.95675601 697.49830812 48.70154953 697.50305939 C36.5064197 697.52313667 24.37493567 697.23087554 12.20556641 696.40136719 C11.11664785 696.33230289 10.0277293 696.2632386 8.90581322 696.19208145 C-11.58530475 694.64048534 -11.58530475 694.64048534 -18.453125 687.23046875 C-24.16061784 678.01804289 -20.01802704 659.72086923 -19.49417496 649.29332352 C-19.31080506 645.63835589 -19.13164963 641.98320206 -18.95358276 638.32797241 C-18.72812886 633.70137833 -18.50209659 629.07481414 -18.27492023 624.44830441 C-17.54032992 609.48319649 -16.82238007 594.51730276 -16.1171875 579.55078125 C-16.08245103 578.81357747 -16.04771455 578.07637369 -16.01192546 577.3168304 C-14.400031 543.05803771 -13.02322932 508.79103353 -11.72057676 474.51924086 C-11.64098353 472.42739166 -11.56112672 470.3355527 -11.48117447 468.24371719 C-10.81768065 450.88274002 -10.17185755 433.52120403 -9.55725098 416.15842056 C-9.46281303 413.5028897 -9.36665381 410.84742882 -9.26977539 408.19198608 C-8.32823372 382.18956389 -8.12656931 356.18555546 -8.078125 330.16796875 C-8.07538197 328.98043251 -8.07263893 327.79289627 -8.06981277 326.56937408 C-7.94764756 267.14779327 -9.75253365 207.77819416 -11.58642578 148.39038086 C-11.62892613 147.01378373 -11.62892613 147.01378373 -11.67228508 145.60937655 C-11.75733758 142.85536185 -11.84243776 140.10134863 -11.92755127 137.34733582 C-11.95533016 136.44820404 -11.98310905 135.54907227 -12.01172972 134.62269408 C-12.17791513 129.24380611 -12.17791513 129.24380611 -12.34458828 123.86493325 C-13.07639726 100.28286117 -13.71952361 76.70365322 -14.11328125 53.11328125 C-14.14267697 51.3672291 -14.14267697 51.3672291 -14.17266655 49.58590317 C-14.27408728 43.39340384 -14.35540299 37.20110955 -14.41722488 31.00809479 C-14.45292723 28.24577069 -14.51373612 25.48486071 -14.57858276 22.7230835 C-14.60681083 21.019661 -14.63459726 19.31623111 -14.66186523 17.61279297 C-14.6857409 16.86032351 -14.70961657 16.10785404 -14.73421574 15.33258247 C-14.79224332 10.12776178 -13.88568135 6.73558696 -11.453125 2.23046875 C-7.60457944 -0.33522829 -4.45865263 -0.03959239 0 0 Z " fill="#000000" transform="translate(3948.453125,316.76953125)"/>
<path d="M0 0 C1.27686676 0.00068733 1.27686676 0.00068733 2.57952881 0.00138855 C4.39531841 0.00441521 6.21110531 0.0123138 8.02685547 0.0246582 C10.71722363 0.04244223 13.40723662 0.04517085 16.09765625 0.04492188 C25.16277767 0.06389103 34.1926839 0.27666726 43.24609375 0.734375 C57.34340671 1.42635413 71.44313222 1.38227591 85.5534668 1.36083984 C89.3505729 1.35513787 93.14760892 1.35853023 96.94471264 1.36428833 C110.9525299 1.38222392 124.93013934 1.34270631 138.92260742 0.60018921 C147.9057482 0.12842807 156.88166601 0.00968031 165.8762207 -0.00976562 C168.66840601 -0.01974217 171.45993053 -0.05107059 174.25195312 -0.08203125 C176.04947493 -0.08854086 177.8470018 -0.09379927 179.64453125 -0.09765625 C180.88034691 -0.11617645 180.88034691 -0.11617645 182.14112854 -0.1350708 C186.74227599 -0.11712568 189.86885364 0.1553946 193.546875 3.23046875 C202.81587992 16.01114829 195.27658208 55.14624243 194.75390625 70.41796875 C194.6907104 72.28545115 194.6907104 72.28545115 194.62623787 74.19066048 C193.52243539 106.44936642 191.93269206 138.68501742 190.34168851 170.92267853 C189.70351731 183.85377299 189.07180708 196.7851834 188.44285351 209.71672922 C188.22429293 214.20690729 188.00364412 218.69697592 187.78124142 223.18696523 C186.46650586 249.76134464 185.39318594 276.30396214 185.30859375 302.9140625 C185.30383278 304.11173248 185.29907181 305.30940247 185.29416656 306.54336548 C185.26068474 315.2108966 185.24433482 323.87837016 185.2364707 332.54595327 C185.23436504 334.67805286 185.23157713 336.81015069 185.22865677 338.9422493 C185.14841065 401.65341798 186.4766107 464.32236329 188.03588867 527.01147461 C188.9517125 563.89693656 189.77170367 600.78043756 190.2608521 637.67439771 C190.30043455 640.55291219 190.34393149 643.43134224 190.38859367 646.30978203 C190.45778628 650.80506953 190.51609669 655.30036903 190.56585574 659.7959125 C190.58559388 661.43910832 190.60881582 663.08226678 190.63588071 664.72535825 C190.98068146 686.11925761 190.98068146 686.11925761 187.21454716 690.93362522 C168.25572527 705.67670609 110.88941339 697.53375492 88.27246094 697.49121094 C82.14737181 697.47980614 76.02245789 697.48640904 69.89737511 697.49835587 C65.08729801 697.50567559 60.27726063 697.50324109 55.46718216 697.49810028 C53.21197106 697.4967922 50.95675601 697.49830812 48.70154953 697.50305939 C36.5064197 697.52313667 24.37493567 697.23087554 12.20556641 696.40136719 C11.11664785 696.33230289 10.0277293 696.2632386 8.90581322 696.19208145 C-11.58530475 694.64048534 -11.58530475 694.64048534 -18.453125 687.23046875 C-24.16061784 678.01804289 -20.01802704 659.72086923 -19.49417496 649.29332352 C-19.31080506 645.63835589 -19.13164963 641.98320206 -18.95358276 638.32797241 C-18.72812886 633.70137833 -18.50209659 629.07481414 -18.27492023 624.44830441 C-17.54032992 609.48319649 -16.82238007 594.51730276 -16.1171875 579.55078125 C-16.08245103 578.81357747 -16.04771455 578.07637369 -16.01192546 577.3168304 C-14.400031 543.05803771 -13.02322932 508.79103353 -11.72057676 474.51924086 C-11.64098353 472.42739166 -11.56112672 470.3355527 -11.48117447 468.24371719 C-10.81768065 450.88274002 -10.17185755 433.52120403 -9.55725098 416.15842056 C-9.46281303 413.5028897 -9.36665381 410.84742882 -9.26977539 408.19198608 C-8.32823372 382.18956389 -8.12656931 356.18555546 -8.078125 330.16796875 C-8.07538197 328.98043251 -8.07263893 327.79289627 -8.06981277 326.56937408 C-7.94764756 267.14779327 -9.75253365 207.77819416 -11.58642578 148.39038086 C-11.62892613 147.01378373 -11.62892613 147.01378373 -11.67228508 145.60937655 C-11.75733758 142.85536185 -11.84243776 140.10134863 -11.92755127 137.34733582 C-11.95533016 136.44820404 -11.98310905 135.54907227 -12.01172972 134.62269408 C-12.17791513 129.24380611 -12.17791513 129.24380611 -12.34458828 123.86493325 C-13.07639726 100.28286117 -13.71952361 76.70365322 -14.11328125 53.11328125 C-14.14267697 51.3672291 -14.14267697 51.3672291 -14.17266655 49.58590317 C-14.27408728 43.39340384 -14.35540299 37.20110955 -14.41722488 31.00809479 C-14.45292723 28.24577069 -14.51373612 25.48486071 -14.57858276 22.7230835 C-14.60681083 21.019661 -14.63459726 19.31623111 -14.66186523 17.61279297 C-14.6857409 16.86032351 -14.70961657 16.10785404 -14.73421574 15.33258247 C-14.79224332 10.12776178 -13.88568135 6.73558696 -11.453125 2.23046875 C-7.60457944 -0.33522829 -4.45865263 -0.03959239 0 0 Z " fill="#000000" transform="translate(2581.453125,316.76953125)"/>
<path d="M0 0 C5.87570686 -0.45174138 5.87570686 -0.45174138 8.57592773 1.42480469 C10.12247515 3.12553 11.42704948 4.88076449 12.73168945 6.7734375 C13.48180298 7.78361938 13.48180298 7.78361938 14.24707031 8.81420898 C15.29899702 10.23556722 16.33863355 11.66609481 17.36645508 13.10498047 C19.35746803 15.88551145 21.41614481 18.61168226 23.47705078 21.34057617 C24.98542227 23.34088773 26.48202273 25.34962261 27.9777832 27.359375 C31.22144666 31.69781501 34.56340153 35.9547705 37.92211914 40.2043457 C41.29711182 44.47517725 44.62712065 48.77847725 47.93920898 53.09838867 C51.5780276 57.83994422 55.24673574 62.55790253 58.91918945 67.2734375 C64.61301579 74.58620922 70.27651036 81.92113875 75.91918945 89.2734375 C78.00274862 91.98355031 80.08751679 94.69273291 82.17236328 97.40185547 C84.24511052 100.09565815 86.31629793 102.790629 88.3840332 105.48828125 C88.79218262 106.01977783 89.20033203 106.55127441 89.62084961 107.09887695 C90.44187381 108.16984155 91.26057904 109.24258808 92.0769043 110.31713867 C94.31437386 113.2484623 96.60760663 116.1095323 98.9934082 118.921875 C99.50202393 119.53361572 100.01063965 120.14535645 100.53466797 120.77563477 C101.51265817 121.9484954 102.50588852 123.10888001 103.51660156 124.25366211 C106.60146445 127.99114587 107.50280249 130.60985534 107.18920898 135.29858398 C105.32637117 148.92290141 99.11666831 161.03572136 88.91918945 170.2734375 C79.30832526 177.19594807 68.94376637 181.02414522 57.04467773 180.90063477 C51.00612985 179.68886867 47.57545044 175.20599879 43.60668945 170.7734375 C42.76557617 169.8865625 41.92446289 168.9996875 41.05786133 168.0859375 C38.11180663 164.95819793 35.21818177 161.7932609 32.42617798 158.52661133 C27.50198693 152.79125727 22.22466794 147.4671597 16.85668945 142.1484375 C15.89667571 141.1928438 14.93696492 140.23694566 13.97753906 139.28076172 C10.96092576 136.275462 7.94037349 133.27414138 4.91918945 130.2734375 C1.41248794 126.79050739 -2.09248521 123.30587248 -5.5932312 119.81695557 C-6.97966395 118.43690617 -8.36918353 117.05996006 -9.75878906 115.68310547 C-13.51886216 111.93751184 -17.21495634 108.19236516 -20.67260742 104.1640625 C-24.41776373 99.80182522 -28.52116087 95.86799563 -32.67456055 91.8984375 C-34.29814663 90.32153706 -35.92050789 88.74337472 -37.54174805 87.1640625 C-40.07027436 84.7036081 -42.60449239 82.25089446 -45.15991211 79.81835938 C-47.64415912 77.44906222 -50.09863721 75.05212838 -52.54956055 72.6484375 C-53.32021851 71.92736816 -54.09087646 71.20629883 -54.8848877 70.46337891 C-59.93550684 65.44102434 -59.93550684 65.44102434 -60.35380554 62.07978821 C-58.36821848 44.44055937 -44.35056509 24.38355749 -31.08081055 13.2734375 C-21.47918205 6.32545373 -11.76930562 1.54659419 0 0 Z " fill="#000000" transform="translate(61.080810546875,-0.2734375)"/>
<path d="M0 0 C3.67442872 0.41702799 4.95254508 2.05767888 7.53378296 4.66381836 C8.001194 5.12889297 8.46860504 5.59396759 8.95018005 6.07313538 C10.49244561 7.61378645 12.01612501 9.17152543 13.54013062 10.73022461 C14.613782 11.81067134 15.68847548 12.89008344 16.76416016 13.96850586 C19.59714425 16.81491065 22.41438914 19.67643078 25.22903442 22.54095459 C27.51079148 24.85790875 29.80348862 27.16385745 32.09691429 29.46925354 C34.85267646 32.23992551 37.60330113 35.015671 40.35263062 37.79272461 C41.12714632 38.57460648 41.12714632 38.57460648 41.91730881 39.37228394 C47.04046137 44.55253357 52.05834947 49.77514864 56.80712891 55.30322266 C60.49534657 59.443996 64.48489185 63.29795436 68.42294312 67.19897461 C69.84110962 68.61135393 71.25927318 70.02373622 72.67726898 71.43628693 C75.14242443 73.89059962 77.61089821 76.34156994 80.07919312 78.79272461 C83.02904942 81.72209664 85.9782715 84.65208746 88.92355347 87.58605957 C90.74987741 89.40493074 92.57844672 91.22155113 94.40963745 93.03552246 C98.82847944 97.43694151 103.09631637 101.89255452 107.13156128 106.64990234 C109.79029081 109.66711981 112.90307433 112.21446512 115.95419312 114.82397461 C117.92855364 117.82348386 117.78146272 119.70269743 117.13485718 123.18286133 C116.22250063 126.64709035 114.94178122 129.85107546 113.45419312 133.10522461 C113.14143433 133.800271 112.82867554 134.49531738 112.50643921 135.21142578 C103.3658121 155.03444493 89.13186374 171.1940133 68.46591187 179.10131836 C66.49237681 179.69378747 64.62165258 180.02140158 62.57919312 180.29272461 C61.65364624 180.46803711 60.72809937 180.64334961 59.77450562 180.82397461 C56.36301018 181.20592321 53.90358438 181.18210721 50.57919312 180.29272461 C47.02946089 177.36878104 44.48456164 173.91711071 41.88729858 170.16674805 C40.05141307 167.53661419 38.10732137 164.99322468 36.16952515 162.43774414 C34.62659932 160.39776838 33.09987983 158.34642672 31.57528687 156.29272461 C28.83987193 152.62324412 26.04139469 149.00887514 23.20419312 145.41772461 C22.76067505 144.85625732 22.31715698 144.29479004 21.86019897 143.71630859 C20.93062346 142.53977074 20.00101649 141.36325774 19.07138062 140.18676758 C11.11875991 130.09245615 3.27329425 119.9149727 -4.51919556 109.69677734 C-9.10716915 103.68694276 -13.74531815 97.71705018 -18.39248657 91.75292969 C-23.42961374 85.28720553 -28.42983275 78.79412513 -33.42080688 72.29272461 C-34.73570847 70.58572888 -36.05134133 68.87930151 -37.36758423 67.17333984 C-38.22446425 66.06010212 -39.07902798 64.94507696 -39.93106079 63.828125 C-41.70919203 61.49785224 -43.502467 59.19496021 -45.38174438 56.94506836 C-46.20545532 55.9415332 -46.20545532 55.9415332 -47.04580688 54.91772461 C-47.74576782 54.10174805 -47.74576782 54.10174805 -48.45986938 53.26928711 C-51.39744237 47.22696219 -48.56580942 39.9412242 -46.74502563 33.92944336 C-41.85243085 20.49284823 -33.29224298 10.5334209 -20.42080688 4.29272461 C-13.66780333 1.67337778 -7.13146679 0.86233885 0 0 Z " fill="#000000" transform="translate(5703.420806884766,1195.707275390625)"/>
<path d="M0 0 C16.28049619 0.48167148 28.79861412 4.21559658 40.25 16.1875 C47.20560469 24.47801872 51.29900156 34.34637821 53 45 C53.23203125 46.39412109 53.23203125 46.39412109 53.46875 47.81640625 C52.73867413 52.77483819 49.76623891 55.77756459 46.625 59.5625 C45.3251939 61.17812244 44.02571615 62.79400911 42.7265625 64.41015625 C42.0862207 65.19664551 41.44587891 65.98313477 40.78613281 66.79345703 C38.46891232 69.65609219 36.23182444 72.5702639 34 75.5 C30.02101001 80.68315801 26.01462082 85.84439862 22 91 C16.30623466 98.3128057 10.64171353 105.6469667 5 113 C-0.57835595 120.27045726 -6.18004605 127.52137581 -11.8125 134.75 C-16.40466059 140.64435015 -20.96901674 146.55849954 -25.5 152.5 C-30.22092187 158.68940971 -34.97290461 164.85382916 -39.75 171 C-40.35908203 171.78439453 -40.96816406 172.56878906 -41.59570312 173.37695312 C-42.15708984 174.09818359 -42.71847656 174.81941406 -43.296875 175.5625 C-43.79541992 176.20316406 -44.29396484 176.84382813 -44.80761719 177.50390625 C-46 179 -46 179 -47 180 C-62.01843083 181.57952462 -73.91129272 175.97634718 -85.5546875 167.0390625 C-100.35790724 154.63387212 -109.7264642 136.31859805 -115 118 C-113.82244141 116.83984375 -113.82244141 116.83984375 -112.62109375 115.65625 C-111.55975756 114.60430616 -110.49856757 113.5522148 -109.4375 112.5 C-108.66696289 111.74203125 -108.66696289 111.74203125 -107.88085938 110.96875 C-105.10569116 108.21081885 -102.45815242 105.39989408 -99.92211914 102.41992188 C-95.49288039 97.33715191 -90.7246478 92.61822119 -85.9375 87.875 C-84.97748625 86.9194063 -84.01777547 85.96350816 -83.05834961 85.00732422 C-79.53229527 81.49449408 -76.0007571 77.98719427 -72.46936035 74.47973633 C-69.47308792 71.50334483 -66.47897769 68.52480843 -63.48757935 65.54351807 C-62.1011466 64.16346867 -60.71162702 62.78652256 -59.32202148 61.40966797 C-55.60084421 57.70282039 -51.9351994 53.99974341 -48.51318359 50.01318359 C-44.18166877 44.9694658 -39.44635158 40.34142605 -34.7265625 35.6640625 C-33.75217704 34.69409293 -32.77809189 33.7238216 -31.80429077 32.75326538 C-28.74736436 29.70765161 -25.68646589 26.66604971 -22.625 23.625 C-19.05361055 20.07724925 -15.48388775 16.52785289 -11.91831589 12.97425461 C-10.49499787 11.55741397 -9.06863895 10.14363025 -7.64224243 8.72988892 C-6.78399872 7.87494843 -5.925755 7.02000793 -5.04150391 6.13916016 C-4.28318268 5.38607574 -3.52486145 4.63299133 -2.74356079 3.85708618 C-0.93477734 2.10803333 -0.93477734 2.10803333 0 0 Z " fill="#000000" transform="translate(186,1196)"/>
<path d="M0 0 C7.69091972 3.88084753 13.81780411 9.04467368 20 15 C20.51815686 15.41913603 21.03631372 15.83827206 21.57017231 16.27010918 C23.56481835 18.68335092 23.64110383 20.63213453 24.00614929 23.72903442 C24.1533139 24.92337601 24.30047852 26.11771759 24.45210266 27.34825134 C24.60202541 28.6737084 24.75169019 29.99919465 24.90112305 31.32470703 C25.06794696 32.71952846 25.23590311 34.11421486 25.40490723 35.5087738 C25.86083664 39.29906471 26.30047116 43.09108743 26.73697639 46.88365793 C27.19670171 50.85632152 27.67037063 54.82732326 28.14228821 58.79855347 C28.93348969 65.47406683 29.71475538 72.15068292 30.48950195 78.828125 C31.3835845 86.53360307 32.29020433 94.23751921 33.20433968 101.94064248 C34.17883974 110.15284097 35.14527172 118.36597297 36.10873437 126.57947302 C36.38595385 128.93880271 36.66453215 131.29796881 36.9433651 133.65710831 C37.382656 137.37799602 37.81642115 141.09948994 38.2460556 144.82150459 C38.47878527 146.82759435 38.71654177 148.83309898 38.95448303 150.83857727 C39.69162013 157.27572214 40.16930539 163.52082459 40 170 C38.3970947 170.81498562 36.79262722 171.62689927 35.1875 172.4375 C34.29417969 172.88996094 33.40085938 173.34242188 32.48046875 173.80859375 C22.71249453 178.5002979 9.50531831 176.63642826 -0.4609375 173.39453125 C-11.17297422 169.17356314 -21.67394634 163.77472213 -31 157 C-31.57592896 156.65381622 -32.15185791 156.30763245 -32.74523926 155.95095825 C-35.81376043 153.8352017 -37.69435918 152.16289954 -38.6605072 148.48690796 C-38.93518674 145.11026473 -38.96432752 141.79434331 -38.93359375 138.40625 C-38.94616622 137.03150679 -38.96163252 135.65678779 -38.979599 134.28210449 C-39.02227527 130.16185761 -39.01528113 126.04264548 -39.00374603 121.92224121 C-38.99822686 117.61679128 -39.02002275 113.31154851 -39.03936195 109.00614929 C-39.10454842 94.19914306 -39.09709175 79.39252042 -39.07203329 64.58543491 C-39.06061964 57.74329376 -39.05529741 50.90115125 -39.05032361 44.05900288 C-39.04000388 30.03932476 -39.02253438 16.01966345 -39 2 C-37.3970947 1.18501438 -35.79262722 0.37310073 -34.1875 -0.4375 C-33.29417969 -0.88996094 -32.40085938 -1.34242187 -31.48046875 -1.80859375 C-21.6114525 -6.5488299 -9.52325956 -4.68859865 0 0 Z " fill="#000000" transform="translate(4910,1376)"/>
<path d="M0 0 C2.28889121 1.57633931 4.48726581 3.18350879 6.6875 4.875 C12.28224577 9.08182112 17.98063569 13.03694366 23.875 16.8125 C24.59196045 17.27470947 25.3089209 17.73691895 26.04760742 18.21313477 C29.02185701 20.12349821 32.00274413 22.0016366 35.0390625 23.8125 C40.6693892 27.24431818 40.6693892 27.24431818 42.3125 31 C41.81048396 35.81935395 39.69299029 38.51473858 36.08984375 41.67578125 C30.04799744 46.40761977 30.04799744 46.40761977 26 47 C23.6275177 46.38116455 23.6275177 46.38116455 20.97192383 45.32519531 C19.97441605 44.93438782 18.97690826 44.54358032 17.94917297 44.14093018 C16.8792662 43.70770447 15.80935944 43.27447876 14.70703125 42.828125 C13.60526047 42.38990417 12.50348969 41.95168335 11.36833191 41.50018311 C9.04030179 40.57074076 6.71452768 39.63563068 4.39086914 38.6953125 C0.82240069 37.25399892 -2.7549991 35.83683983 -6.33398438 34.421875 C-8.59172228 33.51706207 -10.84890369 32.61085902 -13.10546875 31.703125 C-14.18144821 31.27799622 -15.25742767 30.85286743 -16.36601257 30.41485596 C-17.84808952 29.80973175 -17.84808952 29.80973175 -19.36010742 29.19238281 C-20.23406662 28.84073059 -21.10802582 28.48907837 -22.00846863 28.12677002 C-24 27 -24 27 -25 24 C-23.79038256 15.62339922 -19.57099018 8.5142108 -12.87109375 3.36328125 C-4.96222827 -1.71994905 -4.96222827 -1.71994905 0 0 Z " fill="#000000" transform="translate(40,163)"/>
<path d="M0 0 C6.84370831 1.02180367 11.76677502 5.03046971 15.875 10.5 C19.72604792 16.45161951 21.41352257 22.96097064 20 30 C17.84815142 32.86037055 15.16437061 34.61936482 12.1875 36.5625 C10.61621253 37.67179736 9.04589983 38.78247672 7.4765625 39.89453125 C6.70731445 40.42385254 5.93806641 40.95317383 5.14550781 41.49853516 C2.33695496 43.46401081 -0.29393511 45.56734484 -2.9375 47.75 C-3.78570312 48.44609375 -4.63390625 49.1421875 -5.5078125 49.859375 C-8.99990103 52.85884916 -12.32241286 56.03176537 -15.61328125 59.25 C-18.48539248 61.35590152 -20.46132467 61.82854332 -24 62 C-29.68528259 58.81624175 -31.2840331 54.72066052 -33.43359375 48.71875 C-34.10516616 45.49520242 -34.16341874 44.09788754 -33 41 C-31.05230601 38.20026274 -28.85167026 35.64281789 -26.625 33.0625 C-25.34242626 31.54278286 -24.06119337 30.02193317 -22.78125 28.5 C-22.141875 27.74332031 -21.5025 26.98664063 -20.84375 26.20703125 C-18.20216888 23.0449691 -15.65526499 19.81388371 -13.125 16.5625 C-12.24616295 15.43614392 -11.36725866 14.3098403 -10.48828125 13.18359375 C-10.07400879 12.65233887 -9.65973633 12.12108398 -9.23291016 11.57373047 C-6.18935457 7.68882763 -3.09263807 3.84585938 0 0 Z " fill="#000000" transform="translate(5776,239)"/>
<path d="M0 0 C1.03330948 0.42030991 2.06661896 0.84061981 3.13124084 1.27366638 C6.41478423 2.61125788 9.69372294 3.95974616 12.97265625 5.30859375 C15.20478264 6.22012495 17.43720151 7.13094028 19.66992188 8.04101562 C25.12841495 10.26776121 30.58317373 12.50345839 36.03515625 14.74609375 C35.75405501 16.32695716 35.46303716 17.90605891 35.16796875 19.484375 C35.00699707 20.36391846 34.84602539 21.24346191 34.68017578 22.1496582 C32.583337 30.59018828 26.12914778 36.20340418 19.2265625 41.00390625 C15.84030839 42.15076593 13.47562218 41.60063712 10.03515625 40.74609375 C7.10546875 38.84765625 7.10546875 38.84765625 4.16015625 36.37109375 C-0.93044489 32.22532757 -6.17832181 28.52425162 -11.71484375 24.99609375 C-12.44050537 24.53219238 -13.16616699 24.06829102 -13.91381836 23.59033203 C-15.92882144 22.30573009 -17.94651951 21.02546868 -19.96484375 19.74609375 C-21.78191604 18.58656124 -23.59552705 17.42154294 -25.40234375 16.24609375 C-26.06105469 15.82328125 -26.71976563 15.40046875 -27.3984375 14.96484375 C-28.96484375 13.74609375 -28.96484375 13.74609375 -30.96484375 10.74609375 C-31.03902191 7.48225451 -30.54837326 5.48293664 -28.5078125 2.90625 C-18.58376308 -7.32049374 -12.29451013 -5.08717475 0 0 Z " fill="#000000" transform="translate(5770.96484375,1172.25390625)"/>
<path d="M0 0 C4.45580287 2.87245154 8.94202358 6.5912918 10.8125 11.6875 C11 15 11 15 9.4296875 17.453125 C6.68264022 20.33266652 3.755263 22.15726414 0.3125 24.0625 C-7.14820557 28.35704545 -14.13502524 33.18716699 -21.125 38.203125 C-21.77130371 38.66678467 -22.41760742 39.13044434 -23.08349609 39.6081543 C-24.37694313 40.54750991 -25.6610175 41.49988927 -26.93603516 42.46411133 C-31.64538121 45.98029896 -31.64538121 45.98029896 -35.375 46.1875 C-43.51901462 43.51963314 -48.43804928 39.27472086 -52.80859375 31.953125 C-53.92373237 29.18904371 -54.51404065 26.73122192 -55.07446289 23.81542969 C-55.24933731 22.91395203 -55.42421173 22.01247437 -55.60438538 21.0836792 C-55.7349382 20.39606506 -55.86549103 19.70845093 -56 19 C-48.9974316 16.11273604 -41.98575532 13.24853592 -34.96728516 10.40014648 C-32.5810118 9.42854368 -30.19686981 8.45168894 -27.81494141 7.46948242 C-24.38991908 6.05821332 -20.95766493 4.66603633 -17.5234375 3.27734375 C-15.92935562 2.61338844 -15.92935562 2.61338844 -14.30307007 1.9360199 C-13.30248566 1.53552933 -12.30190125 1.13503876 -11.27099609 0.72241211 C-10.39607513 0.36489365 -9.52115417 0.00737518 -8.61972046 -0.36097717 C-5.40681125 -1.14469527 -3.19006769 -0.79897248 0 0 Z " fill="#000000" transform="translate(142,1168)"/>
</svg>
