<svg width="303" height="103" viewBox="0 0 303 103" fill="none" xmlns="http://www.w3.org/2000/svg">
<path d="M23.2503 7.72074C41.074 -5.63372 99.827 1.63652 147.882 9.3874C174.875 13.7411 274.515 -7.11047 284.552 7.72074C302.366 34.0438 313.651 76.3236 284.552 89.1096C251.184 103.771 176.936 110.263 23.2503 89.1096C-8.23724 84.7757 -2.18636 26.7792 23.2503 7.72074Z" fill="black"/>
<path d="M51.8829 68.35C51.8495 68.85 51.7495 67.05 51.5829 62.95C51.3829 58.8833 50.9162 49.45 50.1829 34.65C52.4829 32.7167 56.4162 31.9167 61.9829 32.25C67.5495 32.5833 70.6662 35.2 71.3329 40.1C71.3329 42.3333 70.7995 44.05 69.7329 45.25C68.6995 46.45 67.1662 47.35 65.1329 47.95C67.7662 48.45 70.0329 49.4833 71.9329 51.05C73.8662 52.6167 74.8829 54.8 74.9829 57.6C74.1162 63.2 70.4662 66.4333 64.0329 67.3C57.5995 68.1667 53.5495 68.5167 51.8829 68.35ZM58.7829 53.3L59.1829 61.8C62.3495 61.5 64.4662 60.8167 65.5329 59.75C66.5662 58.6833 67.0495 57.3 66.9829 55.6C66.7829 53.6 65.7329 52.5167 63.8329 52.35C61.8995 52.15 60.2162 52.4667 58.7829 53.3ZM57.1329 39.35L57.6329 44.8C58.7995 44.8 60.0995 44.4833 61.5329 43.85C62.9662 43.1833 63.6829 42.1 63.6829 40.6C63.2829 38.8333 62.1495 38.1167 60.2829 38.45C58.4162 38.7833 57.3662 39.0833 57.1329 39.35ZM96.9895 61.1C95.5895 62.9667 94.1562 64.3833 92.6895 65.35C91.2228 66.35 89.3062 66.8833 86.9395 66.95C79.9395 65.7833 76.6395 61.2333 77.0395 53.3C77.4395 45.4 78.0228 39.65 78.7895 36.05L86.1395 37.05C85.4062 41.85 84.9395 46.55 84.7395 51.15C84.5395 55.7167 86.4895 58.1667 90.5895 58.5C93.7562 57.9 95.1562 55.1333 94.7895 50.2C94.4228 45.2333 94.1062 41.6833 93.8395 39.55L101.69 39.35L104.79 66.8C104.356 66.8667 103.356 66.9833 101.79 67.15C100.223 67.35 99.2728 67.4333 98.9395 67.4L96.9895 61.1ZM120.857 67.15L111.107 67.3C111.474 65.8667 111.957 64.3667 112.557 62.8C113.157 61.2667 113.657 59.7333 114.057 58.2C114.057 58.1667 114.057 58.1167 114.057 58.05C114.057 57.9833 114.057 57.9167 114.057 57.85C112.757 55.6167 110.824 52 108.257 47C105.724 42 103.39 37.7 101.257 34.1L113.307 33.8L119.157 49.1C119.19 49.1 119.224 49.1 119.257 49.1L125.657 34.45L135.557 36.65C135.424 36.85 134.024 39.65 131.357 45.05C128.69 50.4833 125.19 57.85 120.857 67.15ZM160.877 66L152.527 66.45L152.827 34.3L162.277 34.5L169.477 48.65L169.577 48.75C169.577 48.9167 169.61 48.1833 169.677 46.55C169.743 44.9167 169.877 40.8667 170.077 34.4L178.077 35.05L176.627 64.4L168.677 65.15L160.627 50.15L160.877 66ZM180.116 50.75C180.016 45.5167 181.082 41.2 183.316 37.8C185.582 34.4 189.416 32.6333 194.816 32.5C199.482 32.6667 202.832 34.3833 204.866 37.65C206.932 40.8833 207.932 44.6167 207.866 48.85C207.666 53.7167 206.199 57.45 203.466 60.05C200.699 62.65 197.516 64.05 193.916 64.25C190.349 64.45 187.199 63.4333 184.466 61.2C181.766 58.9667 180.316 55.4833 180.116 50.75ZM187.916 49.3C187.949 51.4333 188.516 53.1167 189.616 54.35C190.716 55.5833 192.182 56.2167 194.016 56.25C198.116 55.65 200.216 53.15 200.316 48.75C200.449 44.35 198.432 41.6 194.266 40.5C192.299 40.5667 190.766 41.4167 189.666 43.05C188.566 44.6833 187.982 46.7667 187.916 49.3ZM222.465 64.6L214.665 65C213.732 60.6 212.432 55.2667 210.765 49C209.132 42.7333 207.932 37.8833 207.165 34.45V34.4C211.565 33.7667 214.282 33.3833 215.315 33.25C216.315 33.1167 216.732 33.0667 216.565 33.1L219.965 49.8L220.065 49.7L223.665 37.35L230.815 36.8L238.965 54L243.165 35.2C247.265 35.9333 249.765 36.3833 250.665 36.55C251.565 36.7167 251.932 36.8167 251.765 36.85C251.032 39.0833 249.882 43.3167 248.315 49.55C246.749 55.7833 245.499 60.7667 244.565 64.5C243.699 64.4667 241.982 64.45 239.415 64.45C236.815 64.45 235.115 64.4333 234.315 64.4L227.965 52.2C227.932 52.2 227.915 52.1833 227.915 52.15C227.915 52.15 227.899 52.15 227.865 52.15C227.765 52.9167 226.982 54.8333 225.515 57.9C224.049 60.9667 223.032 63.2 222.465 64.6Z" fill="#FFF6DC"/>
</svg>
